<svg xmlns="http://www.w3.org/2000/svg" xmlns:xlink="http://www.w3.org/1999/xlink" width="500" zoomAndPan="magnify" viewBox="0 0 375 374.999991" height="500" preserveAspectRatio="xMidYMid meet" version="1.0"><defs><clipPath id="2e0bf90318"><path d="M 31.179688 26.226562 L 347.679688 26.226562 L 347.679688 206 L 31.179688 206 Z M 31.179688 26.226562 " clip-rule="nonzero"/></clipPath><clipPath id="679d026d97"><path d="M 41 211 L 338 211 L 338 343.476562 L 41 343.476562 Z M 41 211 " clip-rule="nonzero"/></clipPath></defs><rect x="-37.5" width="450" fill="#ffffff" y="-37.499999" height="449.999989" fill-opacity="1"/><rect x="-37.5" width="450" fill="#ffffff" y="-37.499999" height="449.999989" fill-opacity="1"/><rect x="-37.5" width="450" fill="#ffffff" y="-37.499999" height="449.999989" fill-opacity="1"/><g clip-path="url(#2e0bf90318)"><path fill="#000000" d="M 329.269531 168.78125 L 326.519531 168.78125 C 326.414062 166.03125 326.226562 163.285156 325.957031 160.546875 C 325.6875 157.808594 325.335938 155.078125 324.898438 152.359375 C 324.464844 149.640625 323.949219 146.9375 323.351562 144.253906 C 322.753906 141.566406 322.074219 138.898438 321.3125 136.253906 C 320.554688 133.605469 319.714844 130.984375 318.800781 128.390625 C 317.882812 125.796875 316.886719 123.230469 315.8125 120.695312 C 314.742188 118.160156 313.59375 115.660156 312.371094 113.195312 C 311.144531 110.726562 309.851562 108.300781 308.480469 105.914062 C 307.109375 103.527344 305.667969 101.183594 304.15625 98.882812 C 302.644531 96.582031 301.066406 94.332031 299.417969 92.125 C 297.769531 89.921875 296.058594 87.769531 294.28125 85.667969 C 292.503906 83.566406 290.664062 81.519531 288.761719 79.53125 C 286.859375 77.539062 284.902344 75.609375 282.882812 73.738281 C 280.867188 71.867188 278.792969 70.058594 276.667969 68.3125 C 274.539062 66.566406 272.363281 64.882812 270.132812 63.269531 C 267.90625 61.65625 265.628906 60.109375 263.308594 58.632812 L 263.308594 55.265625 C 263.308594 54.324219 263.238281 53.382812 263.09375 52.449219 C 262.949219 51.519531 262.734375 50.601562 262.453125 49.699219 C 262.167969 48.800781 261.816406 47.925781 261.398438 47.082031 C 260.980469 46.234375 260.5 45.425781 259.960938 44.652344 C 259.417969 43.878906 258.820312 43.152344 258.167969 42.472656 C 257.511719 41.789062 256.8125 41.164062 256.0625 40.589844 C 255.3125 40.015625 254.523438 39.503906 253.695312 39.050781 C 252.867188 38.597656 252.011719 38.210938 251.125 37.890625 C 250.234375 37.570312 249.328125 37.316406 248.402344 37.136719 C 247.476562 36.953125 246.542969 36.84375 245.601562 36.804688 C 244.65625 36.765625 243.71875 36.800781 242.78125 36.90625 C 241.84375 37.011719 240.917969 37.1875 240.007812 37.433594 C 239.097656 37.683594 238.210938 37.996094 237.347656 38.382812 C 236.488281 38.765625 235.660156 39.210938 234.863281 39.722656 C 234.070312 40.230469 233.320312 40.800781 232.613281 41.425781 C 231.90625 42.050781 231.253906 42.726562 230.648438 43.453125 C 223.4375 41.207031 216.089844 39.570312 208.609375 38.542969 C 208.1875 37.628906 207.707031 36.75 207.164062 35.90625 C 206.621094 35.058594 206.019531 34.257812 205.359375 33.5 C 204.699219 32.738281 203.992188 32.03125 203.230469 31.375 C 202.472656 30.714844 201.667969 30.117188 200.824219 29.574219 C 199.976562 29.03125 199.097656 28.550781 198.183594 28.132812 C 197.269531 27.714844 196.332031 27.363281 195.367188 27.082031 C 194.402344 26.800781 193.421875 26.585938 192.429688 26.441406 C 191.433594 26.300781 190.433594 26.230469 189.429688 26.230469 C 188.425781 26.230469 187.425781 26.300781 186.429688 26.441406 C 185.433594 26.585938 184.457031 26.800781 183.492188 27.082031 C 182.527344 27.363281 181.589844 27.714844 180.675781 28.132812 C 179.761719 28.550781 178.878906 29.03125 178.035156 29.574219 C 177.1875 30.117188 176.386719 30.714844 175.625 31.375 C 174.867188 32.03125 174.15625 32.738281 173.5 33.5 C 172.839844 34.257812 172.238281 35.058594 171.695312 35.90625 C 171.148438 36.75 170.667969 37.628906 170.25 38.542969 C 162.765625 39.570312 155.421875 41.207031 148.207031 43.453125 C 147.605469 42.726562 146.949219 42.050781 146.242188 41.425781 C 145.535156 40.800781 144.785156 40.230469 143.992188 39.722656 C 143.199219 39.210938 142.371094 38.765625 141.507812 38.382812 C 140.648438 37.996094 139.761719 37.683594 138.851562 37.433594 C 137.9375 37.1875 137.015625 37.011719 136.078125 36.90625 C 135.140625 36.800781 134.199219 36.765625 133.257812 36.804688 C 132.3125 36.84375 131.378906 36.953125 130.453125 37.136719 C 129.527344 37.316406 128.621094 37.566406 127.734375 37.890625 C 126.847656 38.210938 125.988281 38.597656 125.160156 39.050781 C 124.332031 39.503906 123.542969 40.015625 122.796875 40.589844 C 122.046875 41.164062 121.34375 41.789062 120.691406 42.472656 C 120.039062 43.152344 119.441406 43.878906 118.898438 44.652344 C 118.355469 45.425781 117.875 46.234375 117.457031 47.082031 C 117.039062 47.925781 116.691406 48.800781 116.40625 49.699219 C 116.121094 50.601562 115.910156 51.519531 115.765625 52.449219 C 115.621094 53.382812 115.550781 54.324219 115.550781 55.265625 L 115.550781 58.632812 C 113.226562 60.109375 110.953125 61.65625 108.722656 63.269531 C 106.496094 64.882812 104.316406 66.566406 102.191406 68.3125 C 100.0625 70.058594 97.992188 71.867188 95.972656 73.738281 C 93.957031 75.609375 91.996094 77.539062 90.09375 79.53125 C 88.195312 81.519531 86.355469 83.566406 84.578125 85.667969 C 82.800781 87.769531 81.085938 89.921875 79.4375 92.125 C 77.792969 94.328125 76.210938 96.582031 74.699219 98.882812 C 73.1875 101.183594 71.75 103.527344 70.378906 105.914062 C 69.007812 108.300781 67.710938 110.726562 66.488281 113.195312 C 65.265625 115.660156 64.117188 118.160156 63.042969 120.695312 C 61.972656 123.230469 60.976562 125.796875 60.058594 128.390625 C 59.140625 130.984375 58.304688 133.605469 57.542969 136.253906 C 56.785156 138.898438 56.105469 141.566406 55.507812 144.253906 C 54.910156 146.9375 54.394531 149.640625 53.957031 152.359375 C 53.523438 155.078125 53.171875 157.808594 52.898438 160.546875 C 52.628906 163.285156 52.441406 166.03125 52.339844 168.78125 L 49.585938 168.78125 C 48.980469 168.78125 48.378906 168.8125 47.777344 168.871094 C 47.175781 168.929688 46.578125 169.019531 45.984375 169.136719 C 45.390625 169.253906 44.804688 169.402344 44.226562 169.578125 C 43.644531 169.753906 43.078125 169.957031 42.519531 170.1875 C 41.960938 170.421875 41.414062 170.679688 40.878906 170.964844 C 40.347656 171.25 39.828125 171.558594 39.324219 171.898438 C 38.824219 172.234375 38.335938 172.59375 37.871094 172.976562 C 37.402344 173.359375 36.953125 173.765625 36.527344 174.195312 C 36.097656 174.621094 35.691406 175.070312 35.308594 175.539062 C 34.925781 176.007812 34.566406 176.492188 34.230469 176.996094 C 33.894531 177.5 33.582031 178.015625 33.296875 178.550781 C 33.011719 179.085938 32.753906 179.628906 32.523438 180.191406 C 32.292969 180.75 32.089844 181.316406 31.914062 181.898438 C 31.738281 182.476562 31.589844 183.0625 31.472656 183.65625 C 31.355469 184.25 31.265625 184.847656 31.207031 185.449219 C 31.148438 186.050781 31.117188 186.65625 31.117188 187.261719 C 31.117188 187.867188 31.148438 188.46875 31.207031 189.074219 C 31.265625 189.675781 31.355469 190.273438 31.472656 190.867188 C 31.589844 191.460938 31.738281 192.046875 31.914062 192.625 C 32.089844 193.203125 32.292969 193.773438 32.523438 194.332031 C 32.753906 194.890625 33.011719 195.4375 33.296875 195.972656 C 33.582031 196.507812 33.894531 197.023438 34.230469 197.527344 C 34.566406 198.03125 34.925781 198.515625 35.308594 198.984375 C 35.691406 199.453125 36.097656 199.902344 36.527344 200.328125 C 36.953125 200.757812 37.402344 201.164062 37.871094 201.546875 C 38.335938 201.929688 38.824219 202.289062 39.324219 202.625 C 39.828125 202.960938 40.347656 203.273438 40.878906 203.558594 C 41.414062 203.84375 41.960938 204.101562 42.519531 204.335938 C 43.078125 204.566406 43.644531 204.769531 44.226562 204.945312 C 44.804688 205.121094 45.390625 205.269531 45.984375 205.386719 C 46.578125 205.503906 47.175781 205.59375 47.777344 205.652344 C 48.378906 205.710938 48.980469 205.742188 49.585938 205.742188 L 329.269531 205.742188 C 329.875 205.742188 330.480469 205.710938 331.082031 205.652344 C 331.683594 205.59375 332.28125 205.503906 332.875 205.386719 C 333.46875 205.269531 334.054688 205.121094 334.632812 204.945312 C 335.210938 204.769531 335.78125 204.566406 336.339844 204.335938 C 336.898438 204.101562 337.445312 203.84375 337.976562 203.558594 C 338.511719 203.273438 339.027344 202.960938 339.53125 202.625 C 340.035156 202.289062 340.519531 201.929688 340.988281 201.546875 C 341.457031 201.164062 341.902344 200.757812 342.332031 200.328125 C 342.757812 199.902344 343.164062 199.453125 343.546875 198.984375 C 343.933594 198.515625 344.292969 198.03125 344.628906 197.527344 C 344.964844 197.023438 345.273438 196.507812 345.558594 195.972656 C 345.84375 195.4375 346.101562 194.890625 346.335938 194.332031 C 346.566406 193.773438 346.769531 193.203125 346.945312 192.625 C 347.121094 192.046875 347.269531 191.460938 347.386719 190.867188 C 347.503906 190.273438 347.59375 189.675781 347.652344 189.074219 C 347.710938 188.46875 347.742188 187.867188 347.742188 187.261719 C 347.742188 186.65625 347.710938 186.050781 347.652344 185.449219 C 347.59375 184.847656 347.503906 184.25 347.386719 183.65625 C 347.269531 183.0625 347.121094 182.476562 346.945312 181.898438 C 346.769531 181.316406 346.566406 180.75 346.335938 180.191406 C 346.101562 179.628906 345.84375 179.085938 345.558594 178.550781 C 345.273438 178.015625 344.964844 177.5 344.628906 176.996094 C 344.292969 176.492188 343.933594 176.007812 343.546875 175.539062 C 343.164062 175.070312 342.757812 174.621094 342.332031 174.195312 C 341.902344 173.765625 341.457031 173.359375 340.988281 172.976562 C 340.519531 172.59375 340.035156 172.234375 339.53125 171.898438 C 339.027344 171.558594 338.511719 171.25 337.976562 170.964844 C 337.445312 170.679688 336.898438 170.421875 336.339844 170.1875 C 335.78125 169.957031 335.210938 169.753906 334.632812 169.578125 C 334.054688 169.402344 333.46875 169.253906 332.875 169.136719 C 332.28125 169.019531 331.683594 168.929688 331.082031 168.871094 C 330.480469 168.8125 329.875 168.78125 329.269531 168.78125 Z M 236.921875 55.265625 C 236.921875 54.746094 236.972656 54.230469 237.074219 53.722656 C 237.175781 53.210938 237.324219 52.714844 237.523438 52.234375 C 237.722656 51.753906 237.96875 51.300781 238.257812 50.867188 C 238.546875 50.433594 238.875 50.035156 239.242188 49.667969 C 239.609375 49.296875 240.007812 48.96875 240.441406 48.679688 C 240.871094 48.394531 241.328125 48.148438 241.808594 47.949219 C 242.289062 47.75 242.785156 47.601562 243.292969 47.5 C 243.804688 47.398438 244.316406 47.347656 244.839844 47.347656 C 245.359375 47.347656 245.871094 47.398438 246.382812 47.5 C 246.890625 47.601562 247.386719 47.75 247.867188 47.949219 C 248.347656 48.148438 248.804688 48.394531 249.234375 48.679688 C 249.667969 48.96875 250.066406 49.296875 250.433594 49.667969 C 250.800781 50.035156 251.128906 50.433594 251.417969 50.867188 C 251.707031 51.300781 251.953125 51.753906 252.152344 52.234375 C 252.351562 52.714844 252.5 53.210938 252.601562 53.722656 C 252.703125 54.230469 252.753906 54.746094 252.753906 55.265625 L 252.753906 134.464844 C 252.753906 134.984375 252.703125 135.5 252.601562 136.007812 C 252.5 136.519531 252.351562 137.015625 252.152344 137.496094 C 251.953125 137.976562 251.707031 138.429688 251.417969 138.863281 C 251.128906 139.296875 250.800781 139.695312 250.433594 140.0625 C 250.066406 140.429688 249.667969 140.757812 249.234375 141.046875 C 248.804688 141.335938 248.347656 141.582031 247.867188 141.78125 C 247.386719 141.980469 246.890625 142.128906 246.382812 142.230469 C 245.871094 142.332031 245.359375 142.382812 244.839844 142.382812 C 244.316406 142.382812 243.804688 142.332031 243.292969 142.230469 C 242.785156 142.128906 242.289062 141.980469 241.808594 141.78125 C 241.328125 141.582031 240.871094 141.335938 240.441406 141.046875 C 240.007812 140.757812 239.609375 140.429688 239.242188 140.0625 C 238.875 139.695312 238.546875 139.296875 238.257812 138.863281 C 237.96875 138.429688 237.722656 137.976562 237.523438 137.496094 C 237.324219 137.015625 237.175781 136.519531 237.074219 136.007812 C 236.972656 135.5 236.921875 134.984375 236.921875 134.464844 Z M 178.875 47.347656 C 178.875 46.652344 178.941406 45.96875 179.078125 45.285156 C 179.210938 44.605469 179.414062 43.945312 179.679688 43.304688 C 179.941406 42.664062 180.269531 42.058594 180.652344 41.480469 C 181.039062 40.902344 181.476562 40.371094 181.964844 39.878906 C 182.457031 39.390625 182.988281 38.953125 183.566406 38.566406 C 184.140625 38.183594 184.75 37.855469 185.390625 37.589844 C 186.03125 37.324219 186.691406 37.125 187.371094 36.988281 C 188.050781 36.855469 188.734375 36.789062 189.429688 36.789062 C 190.121094 36.789062 190.808594 36.855469 191.488281 36.988281 C 192.167969 37.125 192.828125 37.324219 193.46875 37.589844 C 194.109375 37.855469 194.714844 38.183594 195.292969 38.566406 C 195.867188 38.953125 196.402344 39.390625 196.890625 39.878906 C 197.382812 40.371094 197.820312 40.902344 198.203125 41.480469 C 198.589844 42.058594 198.914062 42.664062 199.179688 43.304688 C 199.445312 43.945312 199.644531 44.605469 199.78125 45.285156 C 199.914062 45.96875 199.984375 46.652344 199.984375 47.347656 L 199.984375 131.824219 C 199.984375 132.515625 199.914062 133.203125 199.78125 133.882812 C 199.644531 134.5625 199.445312 135.222656 199.179688 135.863281 C 198.914062 136.503906 198.589844 137.113281 198.203125 137.691406 C 197.820312 138.265625 197.382812 138.800781 196.890625 139.289062 C 196.402344 139.78125 195.867188 140.21875 195.292969 140.605469 C 194.714844 140.988281 194.109375 141.3125 193.46875 141.578125 C 192.828125 141.84375 192.167969 142.046875 191.488281 142.179688 C 190.808594 142.316406 190.121094 142.382812 189.429688 142.382812 C 188.734375 142.382812 188.050781 142.316406 187.371094 142.179688 C 186.691406 142.046875 186.03125 141.84375 185.390625 141.578125 C 184.75 141.3125 184.140625 140.988281 183.566406 140.605469 C 182.988281 140.21875 182.457031 139.78125 181.964844 139.289062 C 181.476562 138.800781 181.039062 138.265625 180.652344 137.691406 C 180.269531 137.113281 179.941406 136.503906 179.679688 135.863281 C 179.414062 135.222656 179.210938 134.5625 179.078125 133.882812 C 178.941406 133.203125 178.875 132.515625 178.875 131.824219 Z M 126.105469 55.265625 C 126.105469 54.746094 126.15625 54.230469 126.257812 53.722656 C 126.359375 53.210938 126.507812 52.714844 126.707031 52.234375 C 126.90625 51.753906 127.148438 51.300781 127.4375 50.867188 C 127.726562 50.433594 128.054688 50.035156 128.421875 49.667969 C 128.789062 49.296875 129.191406 48.96875 129.621094 48.679688 C 130.054688 48.394531 130.511719 48.148438 130.992188 47.949219 C 131.472656 47.75 131.964844 47.601562 132.476562 47.5 C 132.984375 47.398438 133.5 47.347656 134.019531 47.347656 C 134.539062 47.347656 135.054688 47.398438 135.5625 47.5 C 136.074219 47.601562 136.570312 47.75 137.050781 47.949219 C 137.527344 48.148438 137.984375 48.394531 138.417969 48.679688 C 138.847656 48.96875 139.25 49.296875 139.617188 49.667969 C 139.984375 50.035156 140.3125 50.433594 140.601562 50.867188 C 140.890625 51.300781 141.132812 51.753906 141.332031 52.234375 C 141.53125 52.714844 141.683594 53.210938 141.785156 53.722656 C 141.882812 54.230469 141.933594 54.746094 141.933594 55.265625 L 141.933594 134.464844 C 141.933594 134.984375 141.882812 135.5 141.785156 136.007812 C 141.683594 136.519531 141.53125 137.015625 141.332031 137.496094 C 141.132812 137.976562 140.890625 138.429688 140.601562 138.863281 C 140.3125 139.296875 139.984375 139.695312 139.617188 140.0625 C 139.25 140.429688 138.847656 140.757812 138.417969 141.046875 C 137.984375 141.335938 137.527344 141.582031 137.050781 141.78125 C 136.570312 141.980469 136.074219 142.128906 135.5625 142.230469 C 135.054688 142.332031 134.539062 142.382812 134.019531 142.382812 C 133.5 142.382812 132.984375 142.332031 132.476562 142.230469 C 131.964844 142.128906 131.472656 141.980469 130.992188 141.78125 C 130.511719 141.582031 130.054688 141.335938 129.621094 141.046875 C 129.191406 140.757812 128.789062 140.429688 128.421875 140.0625 C 128.054688 139.695312 127.726562 139.296875 127.4375 138.863281 C 127.148438 138.429688 126.90625 137.976562 126.707031 137.496094 C 126.507812 137.015625 126.359375 136.519531 126.257812 136.007812 C 126.15625 135.5 126.105469 134.984375 126.105469 134.464844 Z M 79.441406 111.332031 C 83.960938 103.457031 89.265625 96.152344 95.355469 89.417969 C 101.441406 82.683594 108.171875 76.667969 115.550781 71.378906 L 115.550781 134.464844 C 115.550781 135.070312 115.578125 135.671875 115.640625 136.273438 C 115.699219 136.878906 115.785156 137.476562 115.90625 138.070312 C 116.023438 138.664062 116.167969 139.25 116.34375 139.828125 C 116.519531 140.40625 116.722656 140.976562 116.957031 141.535156 C 117.1875 142.09375 117.445312 142.640625 117.730469 143.175781 C 118.015625 143.707031 118.328125 144.226562 118.664062 144.730469 C 119 145.234375 119.359375 145.71875 119.742188 146.1875 C 120.125 146.65625 120.53125 147.101562 120.960938 147.53125 C 121.386719 147.957031 121.835938 148.363281 122.300781 148.75 C 122.769531 149.132812 123.253906 149.492188 123.757812 149.828125 C 124.261719 150.164062 124.78125 150.476562 125.3125 150.761719 C 125.847656 151.046875 126.394531 151.304688 126.953125 151.535156 C 127.511719 151.769531 128.078125 151.972656 128.660156 152.148438 C 129.238281 152.324219 129.824219 152.46875 130.417969 152.585938 C 131.011719 152.707031 131.605469 152.792969 132.210938 152.855469 C 132.8125 152.914062 133.414062 152.941406 134.019531 152.941406 C 134.625 152.941406 135.226562 152.914062 135.832031 152.855469 C 136.433594 152.792969 137.03125 152.707031 137.621094 152.585938 C 138.214844 152.46875 138.800781 152.324219 139.382812 152.148438 C 139.960938 151.972656 140.527344 151.769531 141.085938 151.535156 C 141.648438 151.304688 142.191406 151.046875 142.726562 150.761719 C 143.261719 150.476562 143.777344 150.164062 144.28125 149.828125 C 144.785156 149.492188 145.269531 149.132812 145.738281 148.75 C 146.203125 148.363281 146.652344 147.957031 147.078125 147.53125 C 147.507812 147.101562 147.914062 146.65625 148.296875 146.1875 C 148.679688 145.71875 149.039062 145.234375 149.375 144.730469 C 149.710938 144.226562 150.023438 143.707031 150.308594 143.175781 C 150.59375 142.640625 150.851562 142.09375 151.082031 141.535156 C 151.316406 140.976562 151.519531 140.40625 151.695312 139.828125 C 151.871094 139.25 152.015625 138.664062 152.132812 138.070312 C 152.253906 137.476562 152.339844 136.878906 152.402344 136.273438 C 152.460938 135.671875 152.488281 135.070312 152.488281 134.464844 L 152.488281 55.265625 C 152.488281 54.582031 152.449219 53.902344 152.375 53.226562 C 157.609375 51.640625 162.925781 50.402344 168.320312 49.511719 L 168.320312 131.824219 C 168.320312 132.515625 168.355469 133.207031 168.421875 133.894531 C 168.488281 134.582031 168.589844 135.265625 168.726562 135.945312 C 168.859375 136.621094 169.027344 137.292969 169.230469 137.953125 C 169.429688 138.617188 169.664062 139.265625 169.925781 139.90625 C 170.191406 140.542969 170.488281 141.167969 170.8125 141.777344 C 171.140625 142.390625 171.492188 142.980469 171.878906 143.558594 C 172.261719 144.132812 172.671875 144.6875 173.113281 145.222656 C 173.550781 145.757812 174.015625 146.269531 174.503906 146.757812 C 174.992188 147.246094 175.503906 147.710938 176.039062 148.148438 C 176.574219 148.585938 177.125 149 177.703125 149.382812 C 178.277344 149.769531 178.867188 150.125 179.476562 150.449219 C 180.089844 150.773438 180.710938 151.070312 181.351562 151.335938 C 181.988281 151.601562 182.640625 151.832031 183.300781 152.035156 C 183.964844 152.234375 184.632812 152.402344 185.3125 152.535156 C 185.988281 152.671875 186.671875 152.773438 187.359375 152.839844 C 188.046875 152.910156 188.738281 152.941406 189.429688 152.941406 C 190.121094 152.941406 190.808594 152.910156 191.496094 152.839844 C 192.1875 152.773438 192.867188 152.671875 193.546875 152.535156 C 194.226562 152.402344 194.894531 152.234375 195.554688 152.035156 C 196.21875 151.832031 196.867188 151.601562 197.507812 151.335938 C 198.144531 151.070312 198.769531 150.773438 199.378906 150.449219 C 199.988281 150.125 200.582031 149.769531 201.15625 149.382812 C 201.730469 149 202.285156 148.585938 202.820312 148.148438 C 203.355469 147.710938 203.867188 147.246094 204.355469 146.757812 C 204.84375 146.269531 205.308594 145.757812 205.746094 145.222656 C 206.183594 144.6875 206.59375 144.132812 206.980469 143.558594 C 207.363281 142.980469 207.71875 142.390625 208.042969 141.777344 C 208.371094 141.167969 208.664062 140.542969 208.929688 139.90625 C 209.195312 139.265625 209.425781 138.617188 209.628906 137.953125 C 209.828125 137.292969 209.996094 136.621094 210.132812 135.945312 C 210.265625 135.265625 210.367188 134.582031 210.433594 133.894531 C 210.503906 133.207031 210.539062 132.515625 210.539062 131.824219 L 210.539062 49.511719 C 215.933594 50.402344 221.25 51.640625 226.484375 53.226562 C 226.40625 53.902344 226.367188 54.582031 226.367188 55.265625 L 226.367188 134.464844 C 226.367188 135.070312 226.398438 135.671875 226.457031 136.273438 C 226.515625 136.878906 226.605469 137.476562 226.722656 138.070312 C 226.839844 138.664062 226.988281 139.25 227.164062 139.828125 C 227.339844 140.40625 227.542969 140.976562 227.773438 141.535156 C 228.003906 142.09375 228.265625 142.640625 228.550781 143.175781 C 228.835938 143.707031 229.144531 144.226562 229.480469 144.730469 C 229.816406 145.234375 230.175781 145.71875 230.5625 146.1875 C 230.945312 146.65625 231.351562 147.101562 231.777344 147.53125 C 232.207031 147.957031 232.652344 148.363281 233.121094 148.75 C 233.589844 149.132812 234.074219 149.492188 234.578125 149.828125 C 235.078125 150.164062 235.597656 150.476562 236.132812 150.761719 C 236.664062 151.046875 237.210938 151.304688 237.769531 151.535156 C 238.328125 151.769531 238.898438 151.972656 239.476562 152.148438 C 240.054688 152.324219 240.640625 152.46875 241.234375 152.585938 C 241.828125 152.707031 242.425781 152.792969 243.027344 152.855469 C 243.628906 152.914062 244.234375 152.941406 244.839844 152.941406 C 245.441406 152.941406 246.046875 152.914062 246.648438 152.855469 C 247.25 152.792969 247.847656 152.707031 248.441406 152.585938 C 249.035156 152.46875 249.621094 152.324219 250.199219 152.148438 C 250.777344 151.972656 251.347656 151.769531 251.90625 151.535156 C 252.464844 151.304688 253.011719 151.046875 253.542969 150.761719 C 254.078125 150.476562 254.597656 150.164062 255.097656 149.828125 C 255.601562 149.492188 256.085938 149.132812 256.554688 148.75 C 257.023438 148.363281 257.46875 147.957031 257.898438 147.53125 C 258.324219 147.101562 258.730469 146.65625 259.117188 146.1875 C 259.5 145.71875 259.859375 145.234375 260.195312 144.730469 C 260.53125 144.226562 260.839844 143.707031 261.125 143.175781 C 261.410156 142.640625 261.671875 142.09375 261.902344 141.535156 C 262.132812 140.976562 262.335938 140.40625 262.511719 139.828125 C 262.6875 139.25 262.835938 138.664062 262.953125 138.070312 C 263.070312 137.476562 263.160156 136.878906 263.21875 136.273438 C 263.277344 135.671875 263.308594 135.070312 263.308594 134.464844 L 263.308594 71.378906 C 267.195312 74.160156 270.914062 77.148438 274.464844 80.351562 C 278.011719 83.554688 281.371094 86.949219 284.53125 90.535156 C 287.695312 94.121094 290.644531 97.875 293.378906 101.796875 C 296.117188 105.714844 298.621094 109.78125 300.894531 113.988281 C 303.167969 118.191406 305.195312 122.515625 306.976562 126.953125 C 308.757812 131.390625 310.285156 135.914062 311.550781 140.523438 C 312.816406 145.136719 313.820312 149.804688 314.554688 154.527344 C 315.292969 159.253906 315.757812 164.003906 315.953125 168.78125 L 62.902344 168.78125 C 63.320312 158.683594 64.925781 148.777344 67.722656 139.0625 C 70.519531 129.351562 74.425781 120.105469 79.441406 111.332031 Z M 329.269531 195.179688 L 49.585938 195.179688 C 49.066406 195.179688 48.550781 195.128906 48.042969 195.027344 C 47.53125 194.925781 47.039062 194.777344 46.558594 194.578125 C 46.078125 194.378906 45.621094 194.136719 45.1875 193.847656 C 44.757812 193.558594 44.355469 193.230469 43.988281 192.863281 C 43.621094 192.492188 43.292969 192.09375 43.003906 191.660156 C 42.714844 191.230469 42.472656 190.773438 42.273438 190.292969 C 42.074219 189.8125 41.925781 189.316406 41.824219 188.808594 C 41.722656 188.296875 41.671875 187.78125 41.671875 187.261719 C 41.671875 186.742188 41.722656 186.226562 41.824219 185.714844 C 41.925781 185.207031 42.074219 184.710938 42.273438 184.230469 C 42.472656 183.75 42.714844 183.292969 43.003906 182.863281 C 43.292969 182.429688 43.621094 182.027344 43.988281 181.660156 C 44.355469 181.292969 44.757812 180.964844 45.1875 180.675781 C 45.621094 180.386719 46.078125 180.144531 46.558594 179.945312 C 47.039062 179.746094 47.53125 179.59375 48.042969 179.492188 C 48.550781 179.394531 49.066406 179.34375 49.585938 179.34375 L 329.269531 179.34375 C 329.789062 179.34375 330.304688 179.394531 330.816406 179.492188 C 331.324219 179.59375 331.820312 179.746094 332.300781 179.945312 C 332.78125 180.144531 333.238281 180.386719 333.667969 180.675781 C 334.101562 180.964844 334.5 181.292969 334.867188 181.660156 C 335.234375 182.027344 335.5625 182.429688 335.851562 182.863281 C 336.140625 183.292969 336.386719 183.75 336.582031 184.230469 C 336.78125 184.710938 336.933594 185.207031 337.035156 185.714844 C 337.136719 186.226562 337.1875 186.742188 337.1875 187.261719 C 337.1875 187.78125 337.136719 188.296875 337.035156 188.808594 C 336.933594 189.316406 336.78125 189.8125 336.582031 190.292969 C 336.386719 190.773438 336.140625 191.230469 335.851562 191.660156 C 335.5625 192.09375 335.234375 192.492188 334.867188 192.863281 C 334.5 193.230469 334.101562 193.558594 333.667969 193.847656 C 333.238281 194.136719 332.78125 194.378906 332.300781 194.578125 C 331.820312 194.777344 331.324219 194.925781 330.816406 195.027344 C 330.304688 195.128906 329.789062 195.179688 329.269531 195.179688 Z M 329.269531 195.179688 " fill-opacity="1" fill-rule="nonzero"/></g><g clip-path="url(#679d026d97)"><path fill="#000000" d="M 314.335938 211.890625 L 307.265625 219.730469 L 325.609375 236.296875 L 314.78125 262.449219 L 280.351562 260.6875 C 279.605469 260.648438 278.882812 260.765625 278.1875 261.03125 C 277.488281 261.300781 276.878906 261.699219 276.347656 262.226562 L 256.441406 282.144531 C 255.914062 282.671875 255.515625 283.285156 255.246094 283.984375 C 254.980469 284.679688 254.863281 285.402344 254.902344 286.148438 L 256.660156 320.597656 L 230.523438 331.433594 L 207.421875 305.828125 C 206.921875 305.273438 206.328125 304.84375 205.648438 304.542969 C 204.964844 304.238281 204.25 304.085938 203.503906 304.085938 L 175.351562 304.085938 C 174.605469 304.085938 173.890625 304.238281 173.207031 304.542969 C 172.527344 304.84375 171.933594 305.273438 171.433594 305.828125 L 148.332031 331.433594 L 122.199219 320.601562 L 123.957031 286.148438 C 123.996094 285.402344 123.878906 284.683594 123.613281 283.984375 C 123.34375 283.289062 122.945312 282.675781 122.417969 282.148438 L 102.511719 262.226562 C 101.980469 261.699219 101.371094 261.300781 100.671875 261.035156 C 99.976562 260.765625 99.253906 260.652344 98.507812 260.6875 L 64.078125 262.449219 L 53.25 236.296875 L 71.59375 219.730469 L 64.519531 211.890625 L 43.410156 230.960938 C 43.007812 231.324219 42.667969 231.742188 42.394531 232.214844 C 42.117188 232.683594 41.921875 233.183594 41.800781 233.714844 C 41.679688 234.25 41.644531 234.785156 41.691406 235.328125 C 41.738281 235.871094 41.863281 236.394531 42.074219 236.898438 L 55.75 269.933594 C 55.957031 270.4375 56.238281 270.898438 56.589844 271.316406 C 56.9375 271.730469 57.34375 272.085938 57.804688 272.378906 C 58.265625 272.667969 58.761719 272.882812 59.289062 273.019531 C 59.816406 273.160156 60.351562 273.214844 60.894531 273.1875 L 96.703125 271.355469 L 113.292969 287.957031 L 111.464844 323.785156 C 111.4375 324.328125 111.492188 324.863281 111.628906 325.390625 C 111.769531 325.917969 111.984375 326.414062 112.273438 326.875 C 112.566406 327.335938 112.917969 327.738281 113.335938 328.089844 C 113.753906 328.441406 114.210938 328.722656 114.714844 328.929688 L 147.734375 342.613281 C 148.238281 342.824219 148.761719 342.949219 149.304688 342.996094 C 149.84375 343.042969 150.382812 343.007812 150.914062 342.886719 C 151.445312 342.765625 151.945312 342.570312 152.417969 342.292969 C 152.886719 342.019531 153.304688 341.679688 153.671875 341.273438 L 177.699219 314.648438 L 201.160156 314.648438 L 225.1875 341.273438 C 225.554688 341.679688 225.972656 342.019531 226.441406 342.292969 C 226.914062 342.570312 227.414062 342.765625 227.945312 342.886719 C 228.476562 343.007812 229.011719 343.042969 229.554688 342.996094 C 230.097656 342.949219 230.621094 342.824219 231.125 342.613281 L 264.144531 328.929688 C 264.648438 328.722656 265.105469 328.441406 265.523438 328.089844 C 265.941406 327.742188 266.292969 327.335938 266.585938 326.875 C 266.875 326.414062 267.089844 325.917969 267.230469 325.390625 C 267.367188 324.863281 267.421875 324.328125 267.394531 323.785156 L 265.566406 287.957031 L 282.15625 271.355469 L 317.964844 273.1875 C 318.507812 273.214844 319.046875 273.160156 319.574219 273.023438 C 320.101562 272.886719 320.59375 272.671875 321.054688 272.378906 C 321.515625 272.089844 321.921875 271.734375 322.273438 271.316406 C 322.625 270.898438 322.902344 270.4375 323.109375 269.933594 L 336.785156 236.898438 C 336.996094 236.394531 337.121094 235.871094 337.167969 235.328125 C 337.214844 234.785156 337.179688 234.25 337.058594 233.714844 C 336.9375 233.183594 336.742188 232.683594 336.464844 232.214844 C 336.191406 231.742188 335.851562 231.324219 335.445312 230.960938 Z M 314.335938 211.890625 " fill-opacity="1" fill-rule="nonzero"/></g><path fill="#000000" d="M 189.429688 258.539062 C 187.765625 258.542969 186.109375 258.480469 184.453125 258.355469 C 182.792969 258.226562 181.144531 258.035156 179.503906 257.777344 C 177.863281 257.519531 176.234375 257.199219 174.617188 256.8125 C 173 256.425781 171.402344 255.976562 169.820312 255.464844 C 168.242188 254.953125 166.683594 254.378906 165.148438 253.742188 C 163.613281 253.109375 162.105469 252.414062 160.621094 251.65625 C 159.140625 250.902344 157.695312 250.09375 156.277344 249.222656 C 154.859375 248.355469 153.480469 247.429688 152.136719 246.453125 C 150.792969 245.476562 149.488281 244.445312 148.226562 243.363281 C 146.964844 242.285156 145.746094 241.15625 144.574219 239.976562 C 143.398438 238.800781 142.273438 237.578125 141.195312 236.3125 C 140.121094 235.046875 139.09375 233.742188 138.121094 232.394531 C 137.144531 231.046875 136.226562 229.664062 135.363281 228.246094 C 134.496094 226.824219 133.6875 225.375 132.9375 223.890625 C 132.1875 222.40625 131.496094 220.898438 130.867188 219.359375 C 130.234375 217.820312 129.664062 216.261719 129.15625 214.675781 L 119.113281 217.921875 C 119.707031 219.769531 120.375 221.585938 121.117188 223.378906 C 121.855469 225.167969 122.664062 226.929688 123.542969 228.65625 C 124.421875 230.386719 125.363281 232.078125 126.375 233.730469 C 127.386719 235.386719 128.460938 236.996094 129.597656 238.566406 C 130.734375 240.136719 131.933594 241.65625 133.191406 243.132812 C 134.449219 244.609375 135.761719 246.03125 137.128906 247.402344 C 138.5 248.773438 139.921875 250.089844 141.394531 251.351562 C 142.863281 252.609375 144.386719 253.8125 145.953125 254.953125 C 147.519531 256.089844 149.128906 257.167969 150.78125 258.183594 C 152.429688 259.195312 154.121094 260.144531 155.847656 261.023438 C 157.570312 261.90625 159.328125 262.71875 161.121094 263.460938 C 162.910156 264.203125 164.726562 264.875 166.570312 265.472656 C 168.410156 266.074219 170.273438 266.597656 172.160156 267.050781 C 174.042969 267.503906 175.941406 267.882812 177.855469 268.1875 C 179.769531 268.488281 181.691406 268.71875 183.621094 268.871094 C 185.554688 269.023438 187.488281 269.097656 189.425781 269.097656 C 191.363281 269.097656 193.300781 269.023438 195.230469 268.871094 C 197.164062 268.71875 199.085938 268.488281 201 268.1875 C 202.914062 267.882812 204.8125 267.503906 206.695312 267.050781 C 208.578125 266.597656 210.441406 266.074219 212.285156 265.472656 C 214.128906 264.875 215.945312 264.203125 217.734375 263.460938 C 219.523438 262.71875 221.28125 261.90625 223.007812 261.023438 C 224.734375 260.144531 226.421875 259.195312 228.074219 258.183594 C 229.726562 257.167969 231.335938 256.089844 232.902344 254.953125 C 234.46875 253.8125 235.988281 252.609375 237.460938 251.351562 C 238.933594 250.089844 240.355469 248.773438 241.722656 247.402344 C 243.09375 246.03125 244.40625 244.609375 245.664062 243.132812 C 246.921875 241.65625 248.117188 240.136719 249.253906 238.566406 C 250.394531 236.996094 251.46875 235.386719 252.476562 233.730469 C 253.488281 232.078125 254.433594 230.386719 255.3125 228.65625 C 256.1875 226.929688 256.996094 225.167969 257.738281 223.378906 C 258.476562 221.585938 259.144531 219.769531 259.742188 217.921875 L 249.699219 214.675781 C 249.191406 216.261719 248.621094 217.820312 247.988281 219.359375 C 247.359375 220.894531 246.667969 222.40625 245.917969 223.890625 C 245.167969 225.375 244.359375 226.824219 243.492188 228.246094 C 242.628906 229.664062 241.710938 231.046875 240.734375 232.394531 C 239.761719 233.742188 238.734375 235.046875 237.660156 236.3125 C 236.582031 237.578125 235.457031 238.800781 234.285156 239.976562 C 233.109375 241.15625 231.890625 242.285156 230.628906 243.363281 C 229.367188 244.445312 228.0625 245.472656 226.71875 246.453125 C 225.375 247.429688 223.996094 248.355469 222.578125 249.222656 C 221.164062 250.089844 219.714844 250.902344 218.234375 251.65625 C 216.753906 252.410156 215.246094 253.105469 213.710938 253.742188 C 212.175781 254.378906 210.617188 254.953125 209.035156 255.464844 C 207.453125 255.976562 205.855469 256.425781 204.242188 256.8125 C 202.625 257.199219 200.996094 257.519531 199.355469 257.777344 C 197.710938 258.035156 196.0625 258.226562 194.40625 258.355469 C 192.75 258.480469 191.089844 258.542969 189.429688 258.539062 Z M 189.429688 258.539062 " fill-opacity="1" fill-rule="nonzero"/><path fill="#000000" d="M 184.152344 279.65625 L 194.707031 279.65625 L 194.707031 290.21875 L 184.152344 290.21875 Z M 184.152344 279.65625 " fill-opacity="1" fill-rule="nonzero"/><path fill="#000000" d="M 245.402344 258.648438 L 252.863281 251.183594 L 260.328125 258.648438 L 252.863281 266.117188 Z M 245.402344 258.648438 " fill-opacity="1" fill-rule="nonzero"/><path fill="#000000" d="M 118.53125 258.648438 L 125.996094 251.183594 L 133.457031 258.648438 L 125.996094 266.117188 Z M 118.53125 258.648438 " fill-opacity="1" fill-rule="nonzero"/></svg>