<svg xmlns="http://www.w3.org/2000/svg" xmlns:xlink="http://www.w3.org/1999/xlink" width="500" zoomAndPan="magnify" viewBox="0 0 375 374.999991" height="500" preserveAspectRatio="xMidYMid meet" version="1.0"><defs><clipPath id="f308a06699"><path d="M 55 163 L 318 163 L 318 352.777344 L 55 352.777344 Z M 55 163 " clip-rule="nonzero"/></clipPath><clipPath id="bb7b9624b1"><path d="M 8.855469 12 L 364.355469 12 L 364.355469 171 L 8.855469 171 Z M 8.855469 12 " clip-rule="nonzero"/></clipPath></defs><g clip-path="url(#f308a06699)"><path fill="#231f20" d="M 301.574219 328.027344 C 301.574219 332.578125 297.878906 336.207031 293.398438 336.207031 L 235.949219 336.207031 C 231.398438 336.207031 227.773438 332.507812 227.773438 328.027344 L 227.773438 242.832031 C 227.773438 229.246094 216.753906 218.226562 203.171875 218.226562 L 170.324219 218.226562 C 156.746094 218.226562 145.722656 229.246094 145.722656 242.832031 L 145.722656 328.027344 C 145.722656 332.578125 142.027344 336.207031 137.546875 336.207031 L 79.886719 336.207031 C 75.335938 336.207031 71.710938 332.507812 71.710938 328.027344 L 71.710938 163.820312 L 55.285156 163.820312 L 55.285156 328.027344 C 55.285156 341.609375 66.304688 352.632812 79.886719 352.632812 L 137.335938 352.632812 C 150.914062 352.632812 161.933594 341.609375 161.933594 328.027344 L 161.933594 242.832031 C 161.933594 238.28125 165.632812 234.652344 170.113281 234.652344 L 202.960938 234.652344 C 207.511719 234.652344 211.136719 238.351562 211.136719 242.832031 L 211.136719 328.027344 C 211.136719 341.609375 222.15625 352.632812 235.738281 352.632812 L 293.1875 352.632812 C 306.765625 352.632812 317.785156 341.609375 317.785156 328.027344 L 317.785156 163.820312 L 301.363281 163.820312 Z M 301.574219 328.027344 " fill-opacity="1" fill-rule="nonzero"/></g><g clip-path="url(#bb7b9624b1)"><path fill="#231f20" d="M 202.605469 18.886719 C 193.289062 10.921875 179.851562 10.921875 170.539062 18.886719 L 8.855469 157.5625 L 19.523438 170.007812 L 181.273438 31.332031 C 184.402344 28.703125 188.882812 28.703125 191.9375 31.332031 L 353.691406 170.007812 L 364.355469 157.5625 Z M 202.605469 18.886719 " fill-opacity="1" fill-rule="nonzero"/></g></svg>