<svg xmlns="http://www.w3.org/2000/svg" xmlns:xlink="http://www.w3.org/1999/xlink" width="500" zoomAndPan="magnify" viewBox="0 0 375 374.999991" height="500" preserveAspectRatio="xMidYMid meet" version="1.0"><defs><clipPath id="1074079c96"><path d="M 37.5 129 L 207 129 L 207 283 L 37.5 283 Z M 37.5 129 " clip-rule="nonzero"/></clipPath><clipPath id="006e293832"><path d="M 175 98 L 344.25 98 L 344.25 253 L 175 253 Z M 175 98 " clip-rule="nonzero"/></clipPath><clipPath id="d73847d0ee"><path d="M 114 37.5 L 268 37.5 L 268 344.25 L 114 344.25 Z M 114 37.5 " clip-rule="nonzero"/></clipPath></defs><g clip-path="url(#1074079c96)"><path fill="#545454" d="M 129.523438 282.898438 L 83.511719 282.898438 C 82.007812 282.898438 80.503906 282.824219 79.003906 282.675781 C 77.503906 282.523438 76.015625 282.304688 74.539062 282.007812 C 73.0625 281.714844 71.601562 281.347656 70.160156 280.910156 C 68.71875 280.46875 67.304688 279.960938 65.910156 279.386719 C 64.519531 278.808594 63.160156 278.164062 61.832031 277.453125 C 60.503906 276.742188 59.210938 275.96875 57.960938 275.132812 C 56.707031 274.292969 55.5 273.398438 54.335938 272.441406 C 53.171875 271.484375 52.054688 270.476562 50.988281 269.410156 C 49.925781 268.34375 48.914062 267.230469 47.957031 266.066406 C 47.003906 264.902344 46.105469 263.691406 45.269531 262.441406 C 44.429688 261.1875 43.65625 259.898438 42.945312 258.570312 C 42.234375 257.238281 41.59375 255.878906 41.015625 254.488281 C 40.4375 253.097656 39.929688 251.679688 39.492188 250.238281 C 39.054688 248.796875 38.6875 247.339844 38.390625 245.859375 C 38.097656 244.382812 37.875 242.894531 37.726562 241.394531 C 37.578125 239.898438 37.5 238.394531 37.5 236.886719 L 37.5 175.539062 C 37.5 174.03125 37.578125 172.527344 37.726562 171.027344 C 37.875 169.53125 38.097656 168.042969 38.390625 166.5625 C 38.6875 165.085938 39.054688 163.628906 39.492188 162.1875 C 39.929688 160.746094 40.4375 159.328125 41.015625 157.9375 C 41.59375 156.542969 42.234375 155.183594 42.945312 153.855469 C 43.65625 152.527344 44.429688 151.238281 45.269531 149.984375 C 46.105469 148.734375 47.003906 147.523438 47.957031 146.359375 C 48.914062 145.195312 49.925781 144.082031 50.988281 143.015625 C 52.054688 141.949219 53.171875 140.9375 54.335938 139.984375 C 55.5 139.027344 56.707031 138.132812 57.960938 137.292969 C 59.210938 136.457031 60.503906 135.683594 61.832031 134.972656 C 63.160156 134.261719 64.519531 133.617188 65.910156 133.039062 C 67.304688 132.460938 68.71875 131.953125 70.160156 131.515625 C 71.601562 131.078125 73.0625 130.710938 74.539062 130.417969 C 76.015625 130.121094 77.503906 129.898438 79.003906 129.75 C 80.503906 129.601562 82.007812 129.527344 83.511719 129.523438 L 190.875 129.523438 C 191.882812 129.523438 192.878906 129.625 193.867188 129.820312 C 194.855469 130.015625 195.8125 130.308594 196.746094 130.691406 C 197.675781 131.078125 198.558594 131.550781 199.394531 132.109375 C 200.234375 132.667969 201.007812 133.304688 201.71875 134.015625 C 202.433594 134.730469 203.066406 135.503906 203.628906 136.339844 C 204.1875 137.179688 204.660156 138.0625 205.046875 138.992188 C 205.429688 139.921875 205.722656 140.882812 205.917969 141.871094 C 206.113281 142.859375 206.210938 143.855469 206.210938 144.863281 C 206.210938 145.871094 206.113281 146.867188 205.917969 147.855469 C 205.722656 148.84375 205.429688 149.800781 205.046875 150.730469 C 204.660156 151.664062 204.1875 152.546875 203.628906 153.382812 C 203.066406 154.222656 202.433594 154.996094 201.71875 155.707031 C 201.007812 156.417969 200.234375 157.054688 199.394531 157.613281 C 198.558594 158.175781 197.675781 158.648438 196.746094 159.03125 C 195.8125 159.417969 194.855469 159.707031 193.867188 159.90625 C 192.878906 160.101562 191.882812 160.199219 190.875 160.199219 L 83.511719 160.199219 C 82.503906 160.199219 81.507812 160.296875 80.519531 160.496094 C 79.53125 160.691406 78.574219 160.980469 77.644531 161.367188 C 76.710938 161.753906 75.828125 162.226562 74.992188 162.785156 C 74.152344 163.34375 73.378906 163.980469 72.667969 164.691406 C 71.957031 165.40625 71.320312 166.179688 70.761719 167.015625 C 70.199219 167.855469 69.726562 168.738281 69.34375 169.667969 C 68.957031 170.597656 68.667969 171.558594 68.46875 172.546875 C 68.273438 173.53125 68.175781 174.53125 68.175781 175.539062 L 68.175781 236.886719 C 68.175781 237.894531 68.273438 238.890625 68.46875 239.878906 C 68.667969 240.867188 68.957031 241.828125 69.34375 242.757812 C 69.726562 243.6875 70.199219 244.570312 70.761719 245.410156 C 71.320312 246.246094 71.957031 247.019531 72.667969 247.734375 C 73.378906 248.445312 74.152344 249.082031 74.992188 249.640625 C 75.828125 250.199219 76.710938 250.671875 77.644531 251.058594 C 78.574219 251.441406 79.53125 251.734375 80.519531 251.929688 C 81.507812 252.125 82.503906 252.226562 83.511719 252.226562 L 129.523438 252.226562 C 130.53125 252.226562 131.53125 252.324219 132.515625 252.519531 C 133.503906 252.714844 134.464844 253.007812 135.394531 253.390625 C 136.324219 253.777344 137.207031 254.25 138.046875 254.808594 C 138.882812 255.371094 139.65625 256.003906 140.371094 256.71875 C 141.082031 257.429688 141.71875 258.203125 142.277344 259.042969 C 142.835938 259.878906 143.308594 260.761719 143.695312 261.691406 C 144.082031 262.625 144.371094 263.582031 144.566406 264.570312 C 144.765625 265.558594 144.863281 266.554688 144.863281 267.5625 C 144.863281 268.570312 144.765625 269.566406 144.566406 270.554688 C 144.371094 271.542969 144.082031 272.5 143.695312 273.433594 C 143.308594 274.363281 142.835938 275.246094 142.277344 276.082031 C 141.71875 276.921875 141.082031 277.695312 140.371094 278.40625 C 139.65625 279.121094 138.882812 279.753906 138.046875 280.316406 C 137.207031 280.875 136.324219 281.347656 135.394531 281.734375 C 134.464844 282.117188 133.503906 282.410156 132.515625 282.605469 C 131.53125 282.800781 130.53125 282.898438 129.523438 282.898438 Z M 129.523438 282.898438 " fill-opacity="1" fill-rule="nonzero"/></g><g clip-path="url(#006e293832)"><path fill="#545454" d="M 298.238281 252.226562 L 190.875 252.226562 C 189.867188 252.226562 188.871094 252.125 187.882812 251.929688 C 186.894531 251.734375 185.9375 251.441406 185.003906 251.058594 C 184.074219 250.671875 183.191406 250.199219 182.355469 249.640625 C 181.515625 249.082031 180.742188 248.445312 180.03125 247.734375 C 179.316406 247.019531 178.683594 246.246094 178.121094 245.410156 C 177.5625 244.570312 177.089844 243.6875 176.703125 242.757812 C 176.320312 241.828125 176.027344 240.867188 175.832031 239.878906 C 175.636719 238.890625 175.539062 237.894531 175.539062 236.886719 C 175.539062 235.878906 175.636719 234.882812 175.832031 233.894531 C 176.027344 232.90625 176.320312 231.949219 176.703125 231.019531 C 177.089844 230.085938 177.5625 229.203125 178.121094 228.367188 C 178.683594 227.527344 179.316406 226.753906 180.03125 226.042969 C 180.742188 225.332031 181.515625 224.695312 182.355469 224.136719 C 183.191406 223.574219 184.074219 223.101562 185.003906 222.71875 C 185.9375 222.332031 186.894531 222.042969 187.882812 221.84375 C 188.871094 221.648438 189.867188 221.550781 190.875 221.550781 L 298.238281 221.550781 C 299.246094 221.550781 300.242188 221.453125 301.230469 221.253906 C 302.21875 221.058594 303.175781 220.769531 304.105469 220.382812 C 305.039062 219.996094 305.921875 219.523438 306.757812 218.964844 C 307.597656 218.40625 308.371094 217.769531 309.082031 217.058594 C 309.792969 216.34375 310.429688 215.570312 310.988281 214.734375 C 311.550781 213.894531 312.023438 213.011719 312.40625 212.082031 C 312.792969 211.152344 313.082031 210.191406 313.28125 209.203125 C 313.476562 208.21875 313.574219 207.21875 313.574219 206.210938 L 313.574219 144.863281 C 313.574219 143.855469 313.476562 142.859375 313.28125 141.871094 C 313.082031 140.882812 312.792969 139.921875 312.40625 138.992188 C 312.023438 138.0625 311.550781 137.179688 310.988281 136.339844 C 310.429688 135.503906 309.792969 134.730469 309.082031 134.015625 C 308.371094 133.304688 307.597656 132.667969 306.757812 132.109375 C 305.921875 131.550781 305.039062 131.078125 304.105469 130.691406 C 303.175781 130.308594 302.21875 130.015625 301.230469 129.820312 C 300.242188 129.625 299.246094 129.523438 298.238281 129.523438 L 252.226562 129.523438 C 251.21875 129.523438 250.21875 129.425781 249.234375 129.230469 C 248.246094 129.035156 247.285156 128.742188 246.355469 128.359375 C 245.425781 127.972656 244.542969 127.5 243.703125 126.941406 C 242.867188 126.378906 242.09375 125.746094 241.378906 125.03125 C 240.667969 124.320312 240.03125 123.546875 239.472656 122.707031 C 238.914062 121.871094 238.441406 120.988281 238.054688 120.058594 C 237.667969 119.125 237.378906 118.167969 237.183594 117.179688 C 236.984375 116.191406 236.886719 115.195312 236.886719 114.1875 C 236.886719 113.179688 236.984375 112.183594 237.183594 111.195312 C 237.378906 110.207031 237.667969 109.25 238.054688 108.316406 C 238.441406 107.386719 238.914062 106.503906 239.472656 105.667969 C 240.03125 104.828125 240.667969 104.054688 241.378906 103.34375 C 242.09375 102.628906 242.867188 101.996094 243.703125 101.433594 C 244.542969 100.875 245.425781 100.402344 246.355469 100.015625 C 247.285156 99.632812 248.246094 99.339844 249.234375 99.144531 C 250.21875 98.949219 251.21875 98.851562 252.226562 98.851562 L 298.238281 98.851562 C 299.742188 98.851562 301.246094 98.925781 302.746094 99.074219 C 304.246094 99.226562 305.734375 99.445312 307.210938 99.742188 C 308.6875 100.035156 310.148438 100.402344 311.589844 100.839844 C 313.03125 101.28125 314.445312 101.789062 315.839844 102.363281 C 317.230469 102.941406 318.589844 103.585938 319.917969 104.296875 C 321.246094 105.007812 322.539062 105.78125 323.789062 106.617188 C 325.042969 107.457031 326.25 108.351562 327.414062 109.308594 C 328.578125 110.265625 329.695312 111.273438 330.757812 112.339844 C 331.824219 113.40625 332.835938 114.519531 333.792969 115.683594 C 334.746094 116.847656 335.644531 118.058594 336.480469 119.308594 C 337.320312 120.5625 338.09375 121.851562 338.804688 123.179688 C 339.515625 124.511719 340.15625 125.871094 340.734375 127.261719 C 341.3125 128.652344 341.820312 130.070312 342.257812 131.511719 C 342.695312 132.953125 343.0625 134.410156 343.359375 135.890625 C 343.652344 137.367188 343.875 138.855469 344.023438 140.355469 C 344.171875 141.851562 344.25 143.355469 344.25 144.863281 L 344.25 206.210938 C 344.25 207.71875 344.171875 209.222656 344.023438 210.722656 C 343.875 212.21875 343.652344 213.707031 343.359375 215.1875 C 343.0625 216.664062 342.695312 218.121094 342.257812 219.5625 C 341.820312 221.003906 341.3125 222.421875 340.734375 223.8125 C 340.15625 225.207031 339.515625 226.566406 338.804688 227.894531 C 338.09375 229.222656 337.320312 230.511719 336.480469 231.765625 C 335.644531 233.015625 334.746094 234.226562 333.792969 235.390625 C 332.835938 236.554688 331.824219 237.667969 330.757812 238.734375 C 329.695312 239.800781 328.578125 240.8125 327.414062 241.765625 C 326.25 242.722656 325.042969 243.617188 323.789062 244.457031 C 322.539062 245.292969 321.246094 246.066406 319.917969 246.777344 C 318.589844 247.488281 317.230469 248.132812 315.839844 248.710938 C 314.445312 249.289062 313.03125 249.796875 311.589844 250.234375 C 310.148438 250.671875 308.6875 251.039062 307.210938 251.332031 C 305.734375 251.628906 304.246094 251.851562 302.746094 252 C 301.246094 252.148438 299.742188 252.222656 298.238281 252.226562 Z M 298.238281 252.226562 " fill-opacity="1" fill-rule="nonzero"/></g><g clip-path="url(#d73847d0ee)"><path fill="#545454" d="M 221.550781 344.25 L 160.199219 344.25 C 158.695312 344.25 157.191406 344.171875 155.691406 344.023438 C 154.191406 343.875 152.703125 343.652344 151.226562 343.359375 C 149.75 343.0625 148.289062 342.695312 146.847656 342.257812 C 145.40625 341.820312 143.992188 341.3125 142.597656 340.734375 C 141.207031 340.15625 139.847656 339.515625 138.519531 338.804688 C 137.191406 338.09375 135.898438 337.320312 134.648438 336.480469 C 133.394531 335.644531 132.1875 334.746094 131.023438 333.792969 C 129.859375 332.835938 128.742188 331.824219 127.675781 330.757812 C 126.613281 329.695312 125.601562 328.578125 124.644531 327.414062 C 123.691406 326.25 122.792969 325.042969 121.957031 323.789062 C 121.117188 322.539062 120.34375 321.246094 119.632812 319.917969 C 118.921875 318.589844 118.28125 317.230469 117.703125 315.839844 C 117.125 314.445312 116.617188 313.03125 116.179688 311.589844 C 115.742188 310.148438 115.375 308.6875 115.078125 307.210938 C 114.785156 305.734375 114.5625 304.246094 114.414062 302.746094 C 114.265625 301.246094 114.1875 299.742188 114.1875 298.238281 L 114.1875 221.550781 C 114.1875 220.042969 114.265625 218.539062 114.414062 217.042969 C 114.5625 215.542969 114.785156 214.054688 115.078125 212.578125 C 115.375 211.097656 115.742188 209.640625 116.179688 208.199219 C 116.617188 206.757812 117.125 205.339844 117.703125 203.949219 C 118.28125 202.558594 118.921875 201.199219 119.632812 199.867188 C 120.34375 198.539062 121.117188 197.25 121.957031 195.996094 C 122.792969 194.746094 123.691406 193.535156 124.644531 192.371094 C 125.601562 191.207031 126.613281 190.09375 127.675781 189.027344 C 128.742188 187.960938 129.859375 186.953125 131.023438 185.996094 C 132.1875 185.039062 133.394531 184.144531 134.648438 183.304688 C 135.898438 182.46875 137.191406 181.695312 138.519531 180.984375 C 139.847656 180.273438 141.207031 179.628906 142.597656 179.050781 C 143.992188 178.476562 145.40625 177.96875 146.847656 177.527344 C 148.289062 177.089844 149.75 176.722656 151.226562 176.429688 C 152.703125 176.132812 154.191406 175.914062 155.691406 175.761719 C 157.191406 175.613281 158.695312 175.539062 160.199219 175.539062 L 221.550781 175.539062 C 222.558594 175.539062 223.554688 175.4375 224.542969 175.242188 C 225.53125 175.046875 226.488281 174.753906 227.417969 174.371094 C 228.351562 173.984375 229.234375 173.511719 230.070312 172.953125 C 230.910156 172.394531 231.683594 171.757812 232.394531 171.046875 C 233.105469 170.332031 233.742188 169.558594 234.300781 168.722656 C 234.863281 167.882812 235.335938 167 235.71875 166.070312 C 236.105469 165.140625 236.394531 164.179688 236.59375 163.191406 C 236.789062 162.203125 236.886719 161.207031 236.886719 160.199219 L 236.886719 83.511719 C 236.886719 82.503906 236.789062 81.507812 236.59375 80.519531 C 236.394531 79.53125 236.105469 78.574219 235.71875 77.644531 C 235.335938 76.710938 234.863281 75.828125 234.300781 74.992188 C 233.742188 74.152344 233.105469 73.378906 232.394531 72.667969 C 231.683594 71.957031 230.910156 71.320312 230.070312 70.761719 C 229.234375 70.199219 228.351562 69.726562 227.417969 69.34375 C 226.488281 68.957031 225.53125 68.667969 224.542969 68.46875 C 223.554688 68.273438 222.558594 68.175781 221.550781 68.175781 L 160.199219 68.175781 C 159.191406 68.175781 158.195312 68.273438 157.207031 68.46875 C 156.21875 68.667969 155.261719 68.957031 154.332031 69.34375 C 153.398438 69.726562 152.515625 70.199219 151.679688 70.761719 C 150.839844 71.320312 150.066406 71.957031 149.355469 72.667969 C 148.644531 73.378906 148.007812 74.152344 147.449219 74.992188 C 146.886719 75.828125 146.414062 76.710938 146.03125 77.644531 C 145.644531 78.574219 145.355469 79.53125 145.15625 80.519531 C 144.960938 81.507812 144.863281 82.503906 144.863281 83.511719 L 144.863281 144.863281 C 144.863281 145.871094 144.765625 146.867188 144.566406 147.855469 C 144.371094 148.84375 144.082031 149.800781 143.695312 150.730469 C 143.308594 151.664062 142.835938 152.546875 142.277344 153.382812 C 141.71875 154.222656 141.082031 154.996094 140.371094 155.707031 C 139.65625 156.417969 138.882812 157.054688 138.046875 157.613281 C 137.207031 158.175781 136.324219 158.648438 135.394531 159.03125 C 134.464844 159.417969 133.503906 159.707031 132.515625 159.90625 C 131.53125 160.101562 130.53125 160.199219 129.523438 160.199219 C 128.519531 160.199219 127.519531 160.101562 126.53125 159.90625 C 125.546875 159.707031 124.585938 159.417969 123.65625 159.03125 C 122.726562 158.648438 121.839844 158.175781 121.003906 157.613281 C 120.167969 157.054688 119.390625 156.417969 118.679688 155.707031 C 117.96875 154.996094 117.332031 154.222656 116.773438 153.382812 C 116.210938 152.546875 115.742188 151.664062 115.355469 150.730469 C 114.96875 149.800781 114.679688 148.84375 114.480469 147.855469 C 114.285156 146.867188 114.1875 145.871094 114.1875 144.863281 L 114.1875 83.511719 C 114.1875 82.007812 114.265625 80.503906 114.414062 79.003906 C 114.5625 77.503906 114.785156 76.015625 115.078125 74.539062 C 115.375 73.0625 115.742188 71.601562 116.179688 70.160156 C 116.617188 68.71875 117.125 67.304688 117.703125 65.910156 C 118.28125 64.519531 118.921875 63.160156 119.632812 61.832031 C 120.34375 60.503906 121.117188 59.210938 121.957031 57.960938 C 122.792969 56.707031 123.691406 55.5 124.644531 54.335938 C 125.601562 53.171875 126.613281 52.054688 127.675781 50.988281 C 128.742188 49.925781 129.859375 48.914062 131.023438 47.957031 C 132.1875 47.003906 133.394531 46.105469 134.648438 45.269531 C 135.898438 44.429688 137.191406 43.65625 138.519531 42.945312 C 139.847656 42.234375 141.207031 41.59375 142.597656 41.015625 C 143.992188 40.4375 145.40625 39.929688 146.847656 39.492188 C 148.289062 39.054688 149.75 38.6875 151.226562 38.390625 C 152.703125 38.097656 154.191406 37.875 155.691406 37.726562 C 157.191406 37.578125 158.695312 37.5 160.199219 37.5 L 221.550781 37.5 C 223.054688 37.5 224.558594 37.578125 226.058594 37.726562 C 227.558594 37.875 229.046875 38.097656 230.523438 38.390625 C 232 38.6875 233.460938 39.054688 234.902344 39.492188 C 236.34375 39.929688 237.757812 40.4375 239.152344 41.015625 C 240.542969 41.59375 241.902344 42.234375 243.230469 42.945312 C 244.558594 43.65625 245.851562 44.429688 247.101562 45.269531 C 248.355469 46.105469 249.5625 47.003906 250.726562 47.957031 C 251.890625 48.914062 253.007812 49.925781 254.070312 50.988281 C 255.136719 52.054688 256.148438 53.171875 257.105469 54.335938 C 258.058594 55.5 258.957031 56.707031 259.792969 57.960938 C 260.632812 59.210938 261.40625 60.503906 262.117188 61.832031 C 262.828125 63.160156 263.46875 64.519531 264.046875 65.910156 C 264.625 67.304688 265.132812 68.71875 265.570312 70.160156 C 266.007812 71.601562 266.375 73.0625 266.671875 74.539062 C 266.964844 76.015625 267.1875 77.503906 267.335938 79.003906 C 267.484375 80.503906 267.5625 82.007812 267.5625 83.511719 L 267.5625 160.199219 C 267.5625 161.707031 267.484375 163.210938 267.335938 164.707031 C 267.1875 166.207031 266.964844 167.695312 266.671875 169.171875 C 266.375 170.652344 266.007812 172.109375 265.570312 173.550781 C 265.132812 174.992188 264.625 176.410156 264.046875 177.800781 C 263.46875 179.191406 262.828125 180.550781 262.117188 181.882812 C 261.40625 183.210938 260.632812 184.5 259.792969 185.753906 C 258.957031 187.003906 258.058594 188.214844 257.105469 189.378906 C 256.148438 190.542969 255.136719 191.65625 254.070312 192.722656 C 253.007812 193.789062 251.890625 194.796875 250.726562 195.753906 C 249.5625 196.710938 248.355469 197.605469 247.101562 198.445312 C 245.851562 199.28125 244.558594 200.054688 243.230469 200.765625 C 241.902344 201.476562 240.542969 202.121094 239.152344 202.699219 C 237.757812 203.273438 236.34375 203.78125 234.902344 204.222656 C 233.460938 204.660156 232 205.027344 230.523438 205.320312 C 229.046875 205.617188 227.558594 205.835938 226.058594 205.988281 C 224.558594 206.136719 223.054688 206.210938 221.550781 206.210938 L 160.199219 206.210938 C 159.191406 206.210938 158.195312 206.3125 157.207031 206.507812 C 156.21875 206.703125 155.261719 206.996094 154.332031 207.378906 C 153.398438 207.765625 152.515625 208.238281 151.679688 208.796875 C 150.839844 209.355469 150.066406 209.992188 149.355469 210.703125 C 148.644531 211.417969 148.007812 212.191406 147.449219 213.027344 C 146.886719 213.867188 146.414062 214.75 146.03125 215.679688 C 145.644531 216.609375 145.355469 217.570312 145.15625 218.558594 C 144.960938 219.546875 144.863281 220.542969 144.863281 221.550781 L 144.863281 298.238281 C 144.863281 299.246094 144.960938 300.242188 145.15625 301.230469 C 145.355469 302.21875 145.644531 303.175781 146.03125 304.105469 C 146.414062 305.039062 146.886719 305.921875 147.449219 306.757812 C 148.007812 307.597656 148.644531 308.371094 149.355469 309.082031 C 150.066406 309.792969 150.839844 310.429688 151.679688 310.988281 C 152.515625 311.550781 153.398438 312.023438 154.332031 312.40625 C 155.261719 312.792969 156.21875 313.082031 157.207031 313.28125 C 158.195312 313.476562 159.191406 313.574219 160.199219 313.574219 L 221.550781 313.574219 C 222.558594 313.574219 223.554688 313.476562 224.542969 313.28125 C 225.53125 313.082031 226.488281 312.792969 227.417969 312.40625 C 228.351562 312.023438 229.234375 311.550781 230.070312 310.988281 C 230.910156 310.429688 231.683594 309.792969 232.394531 309.082031 C 233.105469 308.371094 233.742188 307.597656 234.300781 306.757812 C 234.863281 305.921875 235.335938 305.039062 235.71875 304.105469 C 236.105469 303.175781 236.394531 302.21875 236.59375 301.230469 C 236.789062 300.242188 236.886719 299.246094 236.886719 298.238281 L 236.886719 236.886719 C 236.886719 235.878906 236.984375 234.882812 237.183594 233.894531 C 237.378906 232.90625 237.667969 231.949219 238.054688 231.019531 C 238.441406 230.085938 238.914062 229.203125 239.472656 228.367188 C 240.03125 227.527344 240.667969 226.753906 241.378906 226.042969 C 242.09375 225.332031 242.867188 224.695312 243.703125 224.136719 C 244.542969 223.574219 245.425781 223.101562 246.355469 222.71875 C 247.285156 222.332031 248.246094 222.042969 249.234375 221.84375 C 250.21875 221.648438 251.21875 221.550781 252.226562 221.550781 C 253.230469 221.550781 254.230469 221.648438 255.21875 221.84375 C 256.203125 222.042969 257.164062 222.332031 258.09375 222.71875 C 259.023438 223.101562 259.910156 223.574219 260.746094 224.136719 C 261.582031 224.695312 262.359375 225.332031 263.070312 226.042969 C 263.78125 226.753906 264.417969 227.527344 264.976562 228.367188 C 265.535156 229.203125 266.007812 230.085938 266.394531 231.019531 C 266.78125 231.949219 267.070312 232.90625 267.269531 233.894531 C 267.464844 234.882812 267.5625 235.878906 267.5625 236.886719 L 267.5625 298.238281 C 267.5625 299.742188 267.484375 301.246094 267.335938 302.746094 C 267.1875 304.246094 266.964844 305.734375 266.671875 307.210938 C 266.375 308.6875 266.007812 310.148438 265.570312 311.589844 C 265.132812 313.03125 264.625 314.445312 264.046875 315.839844 C 263.46875 317.230469 262.828125 318.589844 262.117188 319.917969 C 261.40625 321.246094 260.632812 322.539062 259.792969 323.789062 C 258.957031 325.042969 258.058594 326.25 257.105469 327.414062 C 256.148438 328.578125 255.136719 329.695312 254.070312 330.757812 C 253.007812 331.824219 251.890625 332.835938 250.726562 333.792969 C 249.5625 334.746094 248.355469 335.644531 247.101562 336.480469 C 245.851562 337.320312 244.558594 338.09375 243.230469 338.804688 C 241.902344 339.515625 240.542969 340.15625 239.152344 340.734375 C 237.757812 341.3125 236.34375 341.820312 234.902344 342.257812 C 233.460938 342.695312 232 343.0625 230.523438 343.359375 C 229.046875 343.652344 227.558594 343.875 226.058594 344.023438 C 224.558594 344.171875 223.054688 344.25 221.550781 344.25 Z M 221.550781 344.25 " fill-opacity="1" fill-rule="nonzero"/></g><path fill="#545454" d="M 175.539062 114.339844 C 174.527344 114.34375 173.53125 114.246094 172.539062 114.054688 C 171.550781 113.859375 170.589844 113.570312 169.65625 113.1875 C 168.722656 112.804688 167.835938 112.332031 166.996094 111.777344 C 166.15625 111.21875 165.378906 110.585938 164.664062 109.875 C 163.949219 109.164062 163.308594 108.390625 162.746094 107.550781 C 162.183594 106.714844 161.707031 105.832031 161.316406 104.902344 C 160.925781 103.972656 160.632812 103.011719 160.429688 102.023438 C 160.230469 101.035156 160.128906 100.039062 160.125 99.027344 C 160.121094 98.019531 160.214844 97.019531 160.40625 96.03125 C 160.597656 95.039062 160.886719 94.078125 161.265625 93.144531 C 161.648438 92.210938 162.117188 91.324219 162.675781 90.484375 C 163.230469 89.640625 163.863281 88.863281 164.574219 88.148438 C 165.28125 87.429688 166.054688 86.789062 166.890625 86.226562 C 167.726562 85.660156 168.609375 85.183594 169.539062 84.792969 C 170.46875 84.402344 171.425781 84.105469 172.414062 83.902344 C 173.402344 83.699219 174.402344 83.59375 175.410156 83.589844 C 176.417969 83.582031 177.417969 83.675781 178.410156 83.867188 C 179.398438 84.058594 180.359375 84.34375 181.296875 84.722656 C 182.230469 85.101562 183.117188 85.570312 183.960938 86.125 C 184.800781 86.679688 185.582031 87.3125 186.300781 88.019531 C 187.015625 88.730469 187.660156 89.5 188.226562 90.335938 C 188.792969 91.171875 189.269531 92.050781 189.664062 92.980469 C 190.054688 93.910156 190.355469 94.867188 190.558594 95.855469 C 190.761719 96.84375 190.867188 97.839844 190.875 98.851562 L 190.875 99.003906 C 190.875 100.011719 190.777344 101.007812 190.582031 101.996094 C 190.382812 102.984375 190.09375 103.941406 189.707031 104.871094 C 189.320312 105.804688 188.851562 106.6875 188.289062 107.523438 C 187.730469 108.363281 187.09375 109.136719 186.382812 109.847656 C 185.671875 110.5625 184.894531 111.195312 184.058594 111.757812 C 183.222656 112.316406 182.335938 112.789062 181.40625 113.171875 C 180.476562 113.558594 179.515625 113.851562 178.53125 114.046875 C 177.542969 114.242188 176.542969 114.339844 175.539062 114.339844 Z M 175.539062 114.339844 " fill-opacity="1" fill-rule="nonzero"/><path fill="#545454" d="M 206.210938 298.390625 C 205.203125 298.394531 204.203125 298.296875 203.214844 298.101562 C 202.226562 297.910156 201.265625 297.621094 200.332031 297.238281 C 199.398438 296.855469 198.511719 296.382812 197.671875 295.824219 C 196.832031 295.269531 196.054688 294.632812 195.339844 293.921875 C 194.621094 293.210938 193.984375 292.4375 193.421875 291.601562 C 192.855469 290.765625 192.378906 289.882812 191.992188 288.953125 C 191.601562 288.023438 191.308594 287.0625 191.105469 286.074219 C 190.90625 285.085938 190.804688 284.085938 190.800781 283.078125 C 190.792969 282.070312 190.890625 281.070312 191.082031 280.082031 C 191.273438 279.089844 191.5625 278.128906 191.941406 277.195312 C 192.324219 276.261719 192.792969 275.375 193.347656 274.535156 C 193.90625 273.691406 194.539062 272.914062 195.25 272.195312 C 195.957031 271.480469 196.730469 270.839844 197.566406 270.273438 C 198.402344 269.710938 199.285156 269.234375 200.214844 268.839844 C 201.144531 268.449219 202.101562 268.152344 203.089844 267.953125 C 204.078125 267.75 205.078125 267.644531 206.085938 267.640625 C 207.09375 267.632812 208.09375 267.726562 209.082031 267.917969 C 210.074219 268.109375 211.035156 268.394531 211.96875 268.773438 C 212.902344 269.152344 213.792969 269.621094 214.632812 270.175781 C 215.476562 270.730469 216.257812 271.363281 216.972656 272.070312 C 217.691406 272.777344 218.335938 273.550781 218.898438 274.386719 C 219.464844 275.21875 219.945312 276.101562 220.339844 277.03125 C 220.730469 277.960938 221.027344 278.917969 221.234375 279.90625 C 221.4375 280.894531 221.542969 281.890625 221.550781 282.898438 L 221.550781 283.054688 C 221.550781 284.058594 221.453125 285.058594 221.253906 286.046875 C 221.058594 287.035156 220.769531 287.992188 220.382812 288.921875 C 219.996094 289.851562 219.523438 290.738281 218.964844 291.574219 C 218.40625 292.410156 217.769531 293.1875 217.058594 293.898438 C 216.34375 294.609375 215.570312 295.246094 214.734375 295.804688 C 213.894531 296.367188 213.011719 296.839844 212.082031 297.222656 C 211.152344 297.609375 210.191406 297.898438 209.203125 298.097656 C 208.21875 298.292969 207.21875 298.390625 206.210938 298.390625 Z M 206.210938 298.390625 " fill-opacity="1" fill-rule="nonzero"/></svg>