<svg xmlns="http://www.w3.org/2000/svg" xmlns:xlink="http://www.w3.org/1999/xlink" width="500" zoomAndPan="magnify" viewBox="0 0 375 374.999991" height="500" preserveAspectRatio="xMidYMid meet" version="1.0"><defs><clipPath id="716ed6fa3b"><path d="M 47 60.484375 L 337 60.484375 L 337 314.734375 L 47 314.734375 Z M 47 60.484375 " clip-rule="nonzero"/></clipPath></defs><g clip-path="url(#716ed6fa3b)"><path fill="#545454" d="M 325.609375 141.597656 C 325.53125 144.441406 325.28125 147.882812 324.878906 151.828125 C 323.152344 168.78125 317.101562 185.25 307.480469 199.609375 C 307.308594 199.871094 307.125 200.128906 306.949219 200.386719 L 223.949219 125.914062 L 223.960938 125.902344 L 221.945312 124.101562 C 219.097656 121.550781 214.585938 121.652344 211.867188 124.320312 L 209.953125 126.203125 L 209.964844 126.210938 L 190.808594 145.015625 L 189.8125 145.992188 C 189.765625 146.039062 189.714844 146.078125 189.667969 146.125 L 183.96875 151.722656 L 175.300781 160.230469 C 172.113281 163.359375 167.847656 164.933594 163.574219 164.933594 C 159.542969 164.933594 155.507812 163.535156 152.363281 160.714844 L 152.363281 160.710938 C 145.890625 154.902344 145.660156 145.269531 151.847656 139.191406 L 190.871094 100.886719 L 191.339844 100.425781 L 196.597656 95.269531 L 202.796875 89.175781 L 202.820312 89.160156 C 216.117188 77.613281 233.621094 71.011719 252.203125 70.957031 L 252.4375 70.957031 C 271.769531 70.957031 290.804688 78.625 304.660156 91.992188 C 318.515625 105.367188 326.152344 123.445312 325.609375 141.597656 Z M 306.339844 230.6875 C 304.976562 232.023438 303.386719 233.03125 301.671875 233.695312 C 299.964844 234.367188 298.136719 234.707031 296.316406 234.707031 C 295.074219 234.707031 293.835938 234.550781 292.636719 234.238281 C 290.929688 233.800781 289.292969 233.050781 287.832031 231.984375 C 287.453125 231.710938 287.085938 231.417969 286.730469 231.097656 L 283.378906 228.089844 L 233.886719 183.613281 L 225.738281 176.289062 C 224.253906 174.953125 222.042969 174.640625 220.203125 175.496094 C 220.15625 175.519531 220.113281 175.539062 220.066406 175.558594 C 217.050781 176.96875 216.433594 180.757812 218.863281 182.945312 C 231.910156 194.699219 266.09375 225.429688 266.09375 225.429688 L 276.121094 234.425781 L 279.894531 237.808594 C 280.320312 238.191406 280.753906 238.554688 281.203125 238.898438 C 286.335938 243.898438 286.390625 251.851562 281.234375 256.914062 C 278.507812 259.589844 274.863281 260.933594 271.210938 260.933594 C 267.765625 260.933594 264.316406 259.738281 261.628906 257.328125 L 206.789062 208.097656 C 204.621094 206.148438 201.121094 206.4375 199.34375 208.707031 C 199.316406 208.742188 199.289062 208.773438 199.265625 208.808594 C 197.777344 210.695312 198.027344 213.324219 199.835938 214.945312 L 255.59375 264.953125 C 261.128906 269.917969 261.324219 278.15625 256.03125 283.351562 C 253.308594 286.027344 249.660156 287.371094 246.011719 287.371094 C 242.5625 287.371094 239.117188 286.171875 236.425781 283.765625 L 230.078125 278.070312 L 226.203125 274.589844 C 230.542969 266.121094 228.84375 255.625 221.222656 248.785156 C 216.777344 244.800781 210.949219 242.605469 204.804688 242.605469 C 203.730469 242.605469 202.664062 242.675781 201.609375 242.8125 C 200.554688 242.949219 199.511719 243.15625 198.488281 243.421875 C 198.5 243.066406 198.5 242.714844 198.492188 242.363281 C 198.351562 236.40625 195.742188 230.863281 191.15625 226.746094 C 186.714844 222.761719 180.882812 220.566406 174.738281 220.566406 C 173.382812 220.566406 172.039062 220.675781 170.714844 220.894531 C 169.390625 221.113281 168.09375 221.433594 166.832031 221.851562 C 166.664062 215.929688 164.066406 210.417969 159.5 206.320312 C 155.058594 202.335938 149.230469 200.140625 143.082031 200.140625 C 141.644531 200.140625 140.214844 200.269531 138.8125 200.511719 C 137.410156 200.753906 136.035156 201.113281 134.707031 201.585938 C 134.449219 196.039062 132.011719 190.574219 127.40625 186.441406 C 122.964844 182.457031 117.132812 180.261719 110.988281 180.261719 C 104.535156 180.261719 98.273438 182.773438 93.8125 187.152344 L 77.960938 202.710938 C 63.097656 181.863281 56.1875 157 58.761719 132.199219 C 59.296875 127.019531 60.191406 122.4375 61.417969 118.589844 C 68.21875 97.210938 85.839844 80.605469 108.558594 74.167969 C 116.074219 72.035156 123.71875 70.957031 131.269531 70.957031 C 151.503906 70.957031 170.464844 78.707031 184.148438 92.15625 C 184.46875 92.472656 184.789062 92.792969 185.101562 93.113281 L 184.5 93.707031 L 144.699219 132.773438 C 139.878906 137.507812 137.308594 143.714844 137.46875 150.261719 C 137.625 156.804688 140.484375 162.902344 145.527344 167.425781 C 150.414062 171.804688 156.820312 174.21875 163.574219 174.21875 C 170.667969 174.21875 177.550781 171.457031 182.449219 166.644531 L 191.117188 158.136719 L 197.957031 151.425781 L 215.980469 133.734375 C 216.605469 133.121094 217.640625 133.101562 218.296875 133.6875 L 302.117188 208.894531 L 305.898438 212.289062 C 307.492188 213.71875 308.644531 215.417969 309.347656 217.242188 C 311.09375 221.746094 310.105469 226.988281 306.339844 230.6875 Z M 219.9375 301.417969 C 217.210938 304.089844 213.566406 305.441406 209.914062 305.441406 C 206.46875 305.441406 203.019531 304.242188 200.332031 301.832031 L 200.1875 301.703125 L 216.347656 285.839844 C 217.5625 285.183594 218.855469 284.480469 220.21875 283.722656 C 225.035156 288.734375 224.988281 296.460938 219.9375 301.417969 Z M 186.785156 301.425781 C 184.058594 304.097656 180.410156 305.445312 176.757812 305.445312 C 173.316406 305.445312 169.863281 304.246094 167.179688 301.835938 C 161.644531 296.867188 161.445312 288.632812 166.738281 283.4375 L 194.78125 255.910156 C 197.503906 253.238281 201.152344 251.890625 204.804688 251.890625 C 208.25 251.890625 211.699219 253.085938 214.386719 255.496094 C 219.921875 260.464844 220.117188 268.703125 214.824219 273.894531 Z M 151.070312 284.929688 C 148.347656 287.601562 144.699219 288.949219 141.042969 288.949219 C 137.601562 288.949219 134.148438 287.75 131.464844 285.339844 C 125.929688 280.375 125.730469 272.136719 131.023438 266.941406 L 164.714844 233.871094 C 167.4375 231.195312 171.085938 229.851562 174.738281 229.851562 C 178.183594 229.851562 181.632812 231.046875 184.320312 233.457031 C 189.855469 238.425781 190.054688 246.660156 184.761719 251.855469 Z M 119.414062 264.503906 C 116.691406 267.179688 113.042969 268.523438 109.386719 268.523438 C 105.941406 268.523438 102.496094 267.328125 99.808594 264.917969 C 94.273438 259.949219 94.074219 251.714844 99.367188 246.519531 L 133.058594 213.445312 C 135.78125 210.773438 139.429688 209.425781 143.082031 209.425781 C 146.527344 209.425781 149.976562 210.621094 152.664062 213.03125 C 158.199219 218 158.398438 226.234375 153.105469 231.433594 Z M 83.433594 242.617188 C 79.988281 242.617188 76.539062 241.421875 73.851562 239.011719 C 68.316406 234.042969 68.121094 225.804688 73.410156 220.613281 L 100.964844 193.566406 C 103.6875 190.890625 107.335938 189.546875 110.988281 189.546875 C 114.433594 189.546875 117.882812 190.742188 120.570312 193.152344 C 126.105469 198.121094 126.300781 206.355469 121.007812 211.550781 L 93.457031 238.597656 C 90.734375 241.273438 87.085938 242.617188 83.433594 242.617188 Z M 330.691406 110.542969 C 326.527344 100.917969 320.457031 92.222656 312.65625 84.695312 C 304.851562 77.164062 295.761719 71.230469 285.632812 67.054688 C 275.058594 62.695312 263.890625 60.484375 252.433594 60.484375 L 252.164062 60.484375 C 243.199219 60.511719 234.425781 61.851562 226.113281 64.410156 C 214.347656 68.019531 203.511719 74.058594 194.367188 82.242188 L 193.039062 83.429688 L 191.863281 84.484375 L 189.359375 82.242188 C 173.679688 68.214844 153.050781 60.484375 131.269531 60.484375 C 122.625 60.484375 113.894531 61.71875 105.332031 64.144531 C 92.484375 67.785156 80.660156 74.457031 71.136719 83.433594 C 61.621094 92.402344 54.566406 103.523438 50.730469 115.59375 C 49.296875 120.085938 48.265625 125.332031 47.660156 131.183594 C 44.75 159.175781 52.832031 187.222656 70.082031 210.445312 L 66.261719 214.195312 C 57.207031 223.082031 57.546875 237.226562 67.015625 245.722656 C 71.457031 249.707031 77.289062 251.902344 83.433594 251.902344 C 84.28125 251.902344 85.125 251.855469 85.964844 251.769531 C 85.714844 253.160156 85.601562 254.574219 85.636719 256.011719 C 85.777344 261.964844 88.382812 267.515625 92.972656 271.628906 C 97.414062 275.617188 103.242188 277.808594 109.386719 277.808594 C 112.105469 277.808594 114.78125 277.359375 117.308594 276.519531 C 117.46875 282.199219 119.914062 287.824219 124.625 292.050781 C 129.070312 296.039062 134.898438 298.234375 141.042969 298.234375 C 145.335938 298.234375 149.535156 297.117188 153.179688 295.089844 C 153.8125 300.046875 156.203125 304.835938 160.339844 308.546875 C 164.785156 312.53125 170.613281 314.726562 176.757812 314.726562 C 182.933594 314.726562 188.921875 312.425781 193.335938 308.398438 L 193.496094 308.542969 C 197.9375 312.527344 203.769531 314.722656 209.914062 314.722656 C 216.367188 314.722656 222.628906 312.210938 227.089844 307.832031 C 231.109375 303.886719 233.402344 298.804688 233.648438 293.398438 C 237.339844 295.515625 241.589844 296.652344 246.011719 296.652344 C 252.464844 296.652344 258.722656 294.144531 263.183594 289.765625 C 268.695312 284.351562 270.730469 276.996094 269.335938 270.148438 C 269.957031 270.199219 270.578125 270.222656 271.210938 270.222656 C 277.664062 270.222656 283.925781 267.710938 288.386719 263.332031 C 292.773438 259.027344 295.105469 253.375 294.964844 247.421875 C 294.933594 246.238281 294.808594 245.070312 294.59375 243.929688 C 295.164062 243.972656 295.738281 243.992188 296.316406 243.992188 C 302.765625 243.992188 309.03125 241.476562 313.488281 237.101562 C 317.875 232.796875 320.214844 227.144531 320.066406 221.191406 C 319.964844 216.722656 318.46875 212.484375 315.792969 208.90625 C 315.550781 208.582031 315.292969 208.265625 315.03125 207.953125 C 315.175781 207.753906 315.320312 207.558594 315.460938 207.355469 C 319.484375 201.652344 322.980469 195.617188 325.917969 189.304688 C 331.316406 177.703125 334.703125 165.429688 335.988281 152.820312 C 336.410156 148.65625 336.671875 144.976562 336.765625 141.890625 C 337.085938 131.136719 335.042969 120.589844 330.691406 110.542969 " fill-opacity="1" fill-rule="nonzero"/></g></svg>