<svg xmlns="http://www.w3.org/2000/svg" xmlns:xlink="http://www.w3.org/1999/xlink" width="500" zoomAndPan="magnify" viewBox="0 0 375 374.999991" height="500" preserveAspectRatio="xMidYMid meet" version="1.0"><defs><clipPath id="89cb63a63b"><path d="M 64 45 L 327.742188 45 L 327.742188 308.660156 L 64 308.660156 Z M 64 45 " clip-rule="nonzero"/></clipPath></defs><g clip-path="url(#89cb63a63b)"><path fill="#545454" d="M 68.730469 258.765625 L 168.527344 258.765625 L 168.527344 290.515625 L 118.628906 290.515625 L 118.628906 308.660156 L 272.855469 308.660156 L 272.855469 290.515625 L 222.957031 290.515625 L 222.957031 258.765625 L 322.753906 258.765625 C 323.050781 258.765625 323.34375 258.734375 323.636719 258.675781 C 323.929688 258.617188 324.214844 258.53125 324.488281 258.417969 C 324.765625 258.304688 325.023438 258.164062 325.273438 258 C 325.519531 257.832031 325.75 257.644531 325.960938 257.433594 C 326.171875 257.226562 326.359375 256.996094 326.523438 256.746094 C 326.691406 256.5 326.828125 256.238281 326.945312 255.964844 C 327.058594 255.6875 327.144531 255.40625 327.203125 255.113281 C 327.257812 254.820312 327.289062 254.527344 327.289062 254.226562 L 327.289062 81.855469 C 327.289062 81.558594 327.257812 81.265625 327.203125 80.972656 C 327.144531 80.679688 327.058594 80.394531 326.945312 80.121094 C 326.828125 79.84375 326.691406 79.585938 326.523438 79.335938 C 326.359375 79.089844 326.171875 78.859375 325.960938 78.648438 C 325.75 78.4375 325.519531 78.25 325.273438 78.085938 C 325.023438 77.917969 324.765625 77.78125 324.488281 77.664062 C 324.214844 77.550781 323.929688 77.464844 323.636719 77.40625 C 323.34375 77.351562 323.050781 77.320312 322.753906 77.320312 L 222.957031 77.320312 L 222.957031 63.710938 L 264.601562 63.710938 C 264.777344 64.210938 264.980469 64.699219 265.214844 65.175781 C 265.449219 65.652344 265.710938 66.113281 265.996094 66.558594 C 266.285156 67.003906 266.597656 67.429688 266.933594 67.839844 C 267.273438 68.246094 267.632812 68.636719 268.015625 69.003906 C 268.398438 69.371094 268.800781 69.710938 269.222656 70.03125 C 269.648438 70.351562 270.085938 70.644531 270.542969 70.914062 C 271 71.183594 271.472656 71.421875 271.957031 71.636719 C 272.445312 71.847656 272.941406 72.035156 273.445312 72.1875 C 273.953125 72.34375 274.46875 72.46875 274.988281 72.5625 C 275.511719 72.660156 276.035156 72.722656 276.566406 72.757812 C 277.09375 72.789062 277.625 72.792969 278.152344 72.765625 C 278.683594 72.738281 279.207031 72.679688 279.730469 72.589844 C 280.253906 72.5 280.769531 72.378906 281.277344 72.230469 C 281.785156 72.078125 282.285156 71.898438 282.773438 71.691406 C 283.257812 71.484375 283.734375 71.25 284.195312 70.984375 C 284.652344 70.722656 285.097656 70.433594 285.523438 70.117188 C 285.949219 69.800781 286.355469 69.460938 286.742188 69.101562 C 287.128906 68.738281 287.492188 68.351562 287.835938 67.949219 C 288.175781 67.542969 288.492188 67.117188 288.785156 66.675781 C 289.078125 66.234375 289.34375 65.777344 289.582031 65.300781 C 289.820312 64.828125 290.03125 64.34375 290.210938 63.84375 C 290.394531 63.347656 290.546875 62.839844 290.667969 62.324219 C 290.792969 61.808594 290.882812 61.289062 290.945312 60.761719 C 291.007812 60.234375 291.039062 59.707031 291.039062 59.175781 C 291.039062 58.644531 291.007812 58.117188 290.945312 57.589844 C 290.882812 57.066406 290.792969 56.542969 290.667969 56.027344 C 290.546875 55.511719 290.394531 55.003906 290.210938 54.507812 C 290.03125 54.007812 289.820312 53.523438 289.582031 53.050781 C 289.34375 52.578125 289.078125 52.117188 288.785156 51.675781 C 288.492188 51.234375 288.175781 50.808594 287.835938 50.40625 C 287.492188 50 287.128906 49.617188 286.742188 49.253906 C 286.355469 48.890625 285.949219 48.550781 285.523438 48.234375 C 285.097656 47.921875 284.652344 47.632812 284.195312 47.367188 C 283.734375 47.105469 283.257812 46.867188 282.773438 46.660156 C 282.285156 46.453125 281.785156 46.273438 281.277344 46.125 C 280.769531 45.972656 280.253906 45.855469 279.730469 45.765625 C 279.207031 45.675781 278.683594 45.617188 278.152344 45.585938 C 277.625 45.558594 277.09375 45.5625 276.566406 45.59375 C 276.035156 45.628906 275.511719 45.695312 274.988281 45.789062 C 274.46875 45.882812 273.953125 46.007812 273.445312 46.164062 C 272.941406 46.320312 272.445312 46.503906 271.957031 46.714844 C 271.472656 46.929688 271 47.171875 270.542969 47.4375 C 270.085938 47.707031 269.648438 48 269.222656 48.320312 C 268.800781 48.640625 268.398438 48.984375 268.015625 49.351562 C 267.632812 49.71875 267.273438 50.105469 266.933594 50.511719 C 266.597656 50.921875 266.285156 51.347656 265.996094 51.792969 C 265.710938 52.242188 265.449219 52.699219 265.214844 53.175781 C 264.980469 53.652344 264.777344 54.140625 264.601562 54.640625 L 218.421875 54.640625 C 218.125 54.640625 217.828125 54.667969 217.539062 54.726562 C 217.246094 54.785156 216.960938 54.871094 216.6875 54.984375 C 216.410156 55.097656 216.148438 55.238281 215.902344 55.40625 C 215.65625 55.570312 215.425781 55.757812 215.214844 55.96875 C 215.003906 56.179688 214.816406 56.410156 214.652344 56.65625 C 214.484375 56.902344 214.347656 57.164062 214.230469 57.441406 C 214.117188 57.714844 214.03125 58 213.972656 58.292969 C 213.914062 58.582031 213.886719 58.878906 213.886719 59.175781 L 213.886719 77.320312 L 177.597656 77.320312 L 177.597656 59.175781 C 177.597656 58.878906 177.570312 58.582031 177.511719 58.292969 C 177.453125 58 177.367188 57.714844 177.253906 57.441406 C 177.140625 57.164062 177 56.902344 176.832031 56.65625 C 176.667969 56.410156 176.480469 56.179688 176.269531 55.96875 C 176.058594 55.757812 175.828125 55.570312 175.582031 55.40625 C 175.335938 55.238281 175.074219 55.097656 174.796875 54.984375 C 174.523438 54.871094 174.238281 54.785156 173.945312 54.726562 C 173.65625 54.667969 173.359375 54.640625 173.0625 54.640625 L 126.882812 54.640625 C 126.707031 54.140625 126.503906 53.652344 126.269531 53.175781 C 126.035156 52.699219 125.773438 52.242188 125.488281 51.792969 C 125.199219 51.347656 124.886719 50.921875 124.550781 50.511719 C 124.210938 50.105469 123.851562 49.71875 123.46875 49.351562 C 123.085938 48.984375 122.683594 48.640625 122.261719 48.320312 C 121.835938 48 121.398438 47.707031 120.941406 47.4375 C 120.484375 47.171875 120.011719 46.929688 119.527344 46.714844 C 119.039062 46.503906 118.542969 46.320312 118.039062 46.164062 C 117.53125 46.007812 117.015625 45.882812 116.496094 45.789062 C 115.972656 45.695312 115.449219 45.628906 114.917969 45.59375 C 114.390625 45.5625 113.859375 45.558594 113.332031 45.585938 C 112.800781 45.617188 112.277344 45.675781 111.753906 45.765625 C 111.230469 45.855469 110.714844 45.972656 110.207031 46.125 C 109.699219 46.273438 109.199219 46.453125 108.710938 46.660156 C 108.226562 46.867188 107.75 47.105469 107.292969 47.367188 C 106.832031 47.632812 106.386719 47.921875 105.960938 48.234375 C 105.535156 48.550781 105.128906 48.890625 104.742188 49.253906 C 104.355469 49.617188 103.992188 50 103.652344 50.40625 C 103.308594 50.808594 102.992188 51.234375 102.699219 51.675781 C 102.40625 52.117188 102.140625 52.578125 101.902344 53.050781 C 101.664062 53.523438 101.453125 54.007812 101.273438 54.507812 C 101.089844 55.003906 100.9375 55.511719 100.816406 56.027344 C 100.691406 56.542969 100.601562 57.066406 100.539062 57.589844 C 100.476562 58.117188 100.445312 58.644531 100.445312 59.175781 C 100.445312 59.707031 100.476562 60.234375 100.539062 60.761719 C 100.601562 61.289062 100.691406 61.808594 100.816406 62.324219 C 100.9375 62.839844 101.089844 63.347656 101.273438 63.84375 C 101.453125 64.34375 101.664062 64.828125 101.902344 65.300781 C 102.140625 65.777344 102.40625 66.234375 102.699219 66.675781 C 102.992188 67.117188 103.308594 67.542969 103.652344 67.949219 C 103.992188 68.351562 104.355469 68.738281 104.742188 69.101562 C 105.128906 69.460938 105.535156 69.800781 105.960938 70.117188 C 106.386719 70.433594 106.832031 70.722656 107.292969 70.984375 C 107.75 71.25 108.226562 71.484375 108.710938 71.691406 C 109.199219 71.898438 109.699219 72.078125 110.207031 72.230469 C 110.714844 72.378906 111.230469 72.5 111.753906 72.589844 C 112.277344 72.679688 112.800781 72.738281 113.332031 72.765625 C 113.859375 72.792969 114.390625 72.789062 114.917969 72.757812 C 115.449219 72.722656 115.972656 72.660156 116.496094 72.5625 C 117.015625 72.46875 117.53125 72.34375 118.039062 72.1875 C 118.542969 72.035156 119.039062 71.847656 119.527344 71.636719 C 120.011719 71.421875 120.484375 71.183594 120.941406 70.914062 C 121.398438 70.644531 121.835938 70.351562 122.261719 70.03125 C 122.683594 69.710938 123.085938 69.371094 123.46875 69.003906 C 123.851562 68.636719 124.210938 68.246094 124.550781 67.839844 C 124.886719 67.429688 125.199219 67.003906 125.488281 66.558594 C 125.773438 66.113281 126.035156 65.652344 126.269531 65.175781 C 126.503906 64.699219 126.707031 64.210938 126.882812 63.710938 L 168.527344 63.710938 L 168.527344 77.320312 L 68.730469 77.320312 C 68.433594 77.320312 68.140625 77.351562 67.847656 77.40625 C 67.554688 77.464844 67.269531 77.550781 66.996094 77.664062 C 66.722656 77.78125 66.460938 77.917969 66.210938 78.085938 C 65.964844 78.25 65.734375 78.4375 65.523438 78.648438 C 65.3125 78.859375 65.125 79.089844 64.960938 79.335938 C 64.796875 79.585938 64.65625 79.84375 64.542969 80.121094 C 64.425781 80.394531 64.339844 80.679688 64.285156 80.972656 C 64.226562 81.265625 64.195312 81.558594 64.195312 81.855469 L 64.195312 254.226562 C 64.195312 254.527344 64.226562 254.820312 64.285156 255.113281 C 64.339844 255.40625 64.425781 255.6875 64.542969 255.964844 C 64.65625 256.238281 64.796875 256.5 64.960938 256.746094 C 65.125 256.996094 65.3125 257.226562 65.523438 257.433594 C 65.734375 257.644531 65.964844 257.832031 66.210938 258 C 66.460938 258.164062 66.722656 258.304688 66.996094 258.417969 C 67.269531 258.53125 67.554688 258.617188 67.847656 258.675781 C 68.140625 258.734375 68.433594 258.765625 68.730469 258.765625 Z M 177.597656 86.394531 L 213.886719 86.394531 L 213.886719 137.0625 L 210.847656 140.101562 C 208.925781 139.054688 206.914062 138.222656 204.816406 137.605469 L 204.816406 127.21875 L 186.671875 127.21875 L 186.671875 137.605469 C 184.570312 138.222656 182.558594 139.054688 180.636719 140.101562 L 177.597656 137.0625 Z M 195.742188 149.898438 C 196.335938 149.898438 196.929688 149.925781 197.519531 149.984375 C 198.113281 150.042969 198.699219 150.128906 199.28125 150.246094 C 199.863281 150.363281 200.441406 150.507812 201.007812 150.679688 C 201.578125 150.851562 202.136719 151.050781 202.6875 151.277344 C 203.234375 151.507812 203.773438 151.761719 204.296875 152.039062 C 204.820312 152.320312 205.328125 152.625 205.824219 152.957031 C 206.316406 153.285156 206.792969 153.640625 207.253906 154.015625 C 207.710938 154.394531 208.152344 154.792969 208.574219 155.210938 C 208.992188 155.632812 209.390625 156.070312 209.769531 156.53125 C 210.144531 156.992188 210.5 157.46875 210.828125 157.960938 C 211.160156 158.457031 211.464844 158.964844 211.746094 159.488281 C 212.023438 160.011719 212.277344 160.550781 212.503906 161.097656 C 212.734375 161.648438 212.933594 162.207031 213.105469 162.773438 C 213.277344 163.34375 213.421875 163.917969 213.539062 164.503906 C 213.652344 165.085938 213.742188 165.671875 213.800781 166.265625 C 213.859375 166.855469 213.886719 167.449219 213.886719 168.042969 C 213.886719 168.636719 213.859375 169.230469 213.800781 169.820312 C 213.742188 170.410156 213.652344 171 213.539062 171.582031 C 213.421875 172.164062 213.277344 172.742188 213.105469 173.308594 C 212.933594 173.878906 212.734375 174.4375 212.503906 174.984375 C 212.277344 175.535156 212.023438 176.070312 211.746094 176.59375 C 211.464844 177.121094 211.160156 177.628906 210.828125 178.121094 C 210.5 178.617188 210.144531 179.09375 209.769531 179.554688 C 209.390625 180.011719 208.992188 180.453125 208.574219 180.871094 C 208.152344 181.292969 207.710938 181.691406 207.253906 182.066406 C 206.792969 182.445312 206.316406 182.796875 205.824219 183.128906 C 205.328125 183.457031 204.820312 183.765625 204.296875 184.042969 C 203.773438 184.324219 203.234375 184.578125 202.6875 184.804688 C 202.136719 185.03125 201.578125 185.234375 201.007812 185.40625 C 200.441406 185.578125 199.863281 185.722656 199.28125 185.839844 C 198.699219 185.953125 198.113281 186.039062 197.519531 186.097656 C 196.929688 186.15625 196.335938 186.1875 195.742188 186.1875 C 195.148438 186.1875 194.554688 186.15625 193.964844 186.097656 C 193.371094 186.039062 192.785156 185.953125 192.203125 185.839844 C 191.621094 185.722656 191.042969 185.578125 190.476562 185.40625 C 189.90625 185.234375 189.347656 185.03125 188.800781 184.804688 C 188.25 184.578125 187.714844 184.324219 187.1875 184.042969 C 186.664062 183.765625 186.15625 183.457031 185.660156 183.128906 C 185.167969 182.796875 184.691406 182.445312 184.230469 182.066406 C 183.773438 181.691406 183.332031 181.292969 182.914062 180.871094 C 182.492188 180.453125 182.09375 180.011719 181.714844 179.554688 C 181.339844 179.09375 180.984375 178.617188 180.65625 178.121094 C 180.324219 177.628906 180.019531 177.121094 179.742188 176.59375 C 179.460938 176.070312 179.207031 175.535156 178.980469 174.984375 C 178.75 174.4375 178.550781 173.878906 178.378906 173.308594 C 178.207031 172.742188 178.0625 172.164062 177.945312 171.582031 C 177.832031 171 177.742188 170.410156 177.683594 169.820312 C 177.628906 169.230469 177.597656 168.636719 177.597656 168.042969 C 177.597656 167.449219 177.628906 166.855469 177.683594 166.265625 C 177.742188 165.671875 177.832031 165.085938 177.945312 164.503906 C 178.0625 163.917969 178.207031 163.34375 178.378906 162.773438 C 178.550781 162.207031 178.75 161.648438 178.980469 161.097656 C 179.207031 160.550781 179.460938 160.011719 179.742188 159.488281 C 180.019531 158.964844 180.324219 158.457031 180.65625 157.960938 C 180.984375 157.46875 181.339844 156.992188 181.714844 156.53125 C 182.09375 156.070312 182.492188 155.632812 182.914062 155.210938 C 183.332031 154.792969 183.773438 154.394531 184.230469 154.015625 C 184.691406 153.640625 185.167969 153.285156 185.660156 152.957031 C 186.15625 152.625 186.664062 152.320312 187.1875 152.039062 C 187.714844 151.761719 188.25 151.507812 188.800781 151.277344 C 189.347656 151.050781 189.90625 150.851562 190.476562 150.679688 C 191.042969 150.507812 191.621094 150.363281 192.203125 150.246094 C 192.785156 150.128906 193.371094 150.042969 193.964844 149.984375 C 194.554688 149.925781 195.148438 149.898438 195.742188 149.898438 Z M 73.269531 86.394531 L 168.527344 86.394531 L 168.527344 137.515625 L 160.453125 145.589844 L 167.800781 152.9375 C 166.753906 154.859375 165.921875 156.871094 165.304688 158.96875 L 154.917969 158.96875 L 154.917969 163.507812 L 108.742188 163.507812 C 108.5625 163.007812 108.359375 162.519531 108.125 162.042969 C 107.890625 161.566406 107.628906 161.105469 107.34375 160.660156 C 107.054688 160.214844 106.742188 159.789062 106.40625 159.378906 C 106.066406 158.96875 105.707031 158.582031 105.324219 158.214844 C 104.941406 157.847656 104.539062 157.507812 104.117188 157.1875 C 103.691406 156.867188 103.253906 156.574219 102.796875 156.304688 C 102.339844 156.035156 101.867188 155.796875 101.382812 155.582031 C 100.898438 155.371094 100.398438 155.183594 99.894531 155.03125 C 99.386719 154.875 98.871094 154.75 98.351562 154.65625 C 97.828125 154.558594 97.304688 154.496094 96.773438 154.460938 C 96.246094 154.429688 95.714844 154.425781 95.1875 154.453125 C 94.65625 154.480469 94.132812 154.539062 93.609375 154.628906 C 93.085938 154.71875 92.570312 154.839844 92.0625 154.988281 C 91.554688 155.140625 91.054688 155.316406 90.570312 155.527344 C 90.082031 155.734375 89.605469 155.96875 89.148438 156.234375 C 88.6875 156.496094 88.242188 156.785156 87.816406 157.101562 C 87.390625 157.417969 86.984375 157.757812 86.597656 158.117188 C 86.210938 158.480469 85.847656 158.867188 85.507812 159.269531 C 85.164062 159.675781 84.847656 160.101562 84.554688 160.542969 C 84.261719 160.984375 83.996094 161.441406 83.757812 161.917969 C 83.519531 162.390625 83.308594 162.875 83.128906 163.375 C 82.945312 163.871094 82.792969 164.378906 82.671875 164.894531 C 82.546875 165.410156 82.457031 165.929688 82.394531 166.457031 C 82.332031 166.984375 82.300781 167.511719 82.300781 168.042969 C 82.300781 168.574219 82.332031 169.101562 82.394531 169.628906 C 82.457031 170.152344 82.546875 170.675781 82.671875 171.191406 C 82.792969 171.707031 82.945312 172.214844 83.128906 172.710938 C 83.308594 173.210938 83.519531 173.695312 83.757812 174.167969 C 83.996094 174.640625 84.261719 175.097656 84.554688 175.542969 C 84.847656 175.984375 85.164062 176.40625 85.507812 176.8125 C 85.847656 177.21875 86.210938 177.601562 86.597656 177.964844 C 86.984375 178.328125 87.390625 178.667969 87.816406 178.984375 C 88.242188 179.296875 88.6875 179.585938 89.148438 179.851562 C 89.605469 180.113281 90.082031 180.351562 90.570312 180.558594 C 91.054688 180.765625 91.554688 180.945312 92.0625 181.09375 C 92.570312 181.246094 93.085938 181.363281 93.609375 181.453125 C 94.132812 181.542969 94.65625 181.601562 95.1875 181.632812 C 95.714844 181.660156 96.246094 181.65625 96.773438 181.621094 C 97.304688 181.589844 97.828125 181.523438 98.351562 181.429688 C 98.871094 181.335938 99.386719 181.210938 99.894531 181.054688 C 100.398438 180.898438 100.898438 180.714844 101.382812 180.503906 C 101.867188 180.289062 102.339844 180.046875 102.796875 179.78125 C 103.253906 179.511719 103.691406 179.21875 104.117188 178.898438 C 104.539062 178.578125 104.941406 178.234375 105.324219 177.867188 C 105.707031 177.5 106.066406 177.113281 106.40625 176.703125 C 106.742188 176.296875 107.054688 175.867188 107.34375 175.421875 C 107.628906 174.976562 107.890625 174.519531 108.125 174.042969 C 108.359375 173.566406 108.5625 173.078125 108.742188 172.578125 L 154.917969 172.578125 L 154.917969 177.113281 L 165.304688 177.113281 C 165.921875 179.214844 166.753906 181.226562 167.800781 183.148438 L 160.453125 190.722656 L 173.289062 203.558594 L 180.636719 196.210938 C 182.558594 197.257812 184.570312 198.089844 186.671875 198.707031 L 186.671875 208.867188 L 204.816406 208.867188 L 204.816406 198.480469 C 206.914062 197.863281 208.925781 197.03125 210.847656 195.984375 L 218.421875 203.332031 L 231.03125 190.722656 L 223.683594 183.375 C 224.746094 181.378906 225.578125 179.292969 226.179688 177.113281 L 236.566406 177.113281 L 236.566406 172.578125 L 282.746094 172.578125 C 282.921875 173.078125 283.125 173.566406 283.359375 174.042969 C 283.59375 174.519531 283.855469 174.976562 284.140625 175.421875 C 284.429688 175.867188 284.742188 176.296875 285.078125 176.703125 C 285.417969 177.113281 285.777344 177.5 286.160156 177.867188 C 286.542969 178.234375 286.945312 178.578125 287.367188 178.898438 C 287.792969 179.21875 288.230469 179.511719 288.6875 179.78125 C 289.144531 180.046875 289.617188 180.289062 290.101562 180.503906 C 290.589844 180.714844 291.085938 180.898438 291.589844 181.054688 C 292.097656 181.210938 292.613281 181.335938 293.132812 181.429688 C 293.65625 181.523438 294.179688 181.589844 294.710938 181.621094 C 295.238281 181.65625 295.769531 181.660156 296.296875 181.632812 C 296.828125 181.601562 297.351562 181.542969 297.875 181.453125 C 298.398438 181.363281 298.914062 181.246094 299.421875 181.09375 C 299.929688 180.945312 300.429688 180.765625 300.917969 180.558594 C 301.402344 180.351562 301.878906 180.113281 302.335938 179.851562 C 302.796875 179.585938 303.242188 179.296875 303.667969 178.984375 C 304.09375 178.667969 304.5 178.328125 304.886719 177.964844 C 305.273438 177.601562 305.636719 177.21875 305.980469 176.8125 C 306.320312 176.40625 306.636719 175.984375 306.929688 175.542969 C 307.222656 175.097656 307.488281 174.640625 307.726562 174.167969 C 307.964844 173.695312 308.175781 173.210938 308.355469 172.710938 C 308.539062 172.214844 308.691406 171.707031 308.8125 171.191406 C 308.9375 170.675781 309.027344 170.152344 309.089844 169.628906 C 309.152344 169.101562 309.183594 168.574219 309.183594 168.042969 C 309.183594 167.511719 309.152344 166.984375 309.089844 166.457031 C 309.027344 165.929688 308.9375 165.410156 308.8125 164.894531 C 308.691406 164.378906 308.539062 163.871094 308.355469 163.375 C 308.175781 162.875 307.964844 162.390625 307.726562 161.917969 C 307.488281 161.441406 307.222656 160.984375 306.929688 160.542969 C 306.636719 160.101562 306.320312 159.675781 305.980469 159.269531 C 305.636719 158.867188 305.273438 158.480469 304.886719 158.117188 C 304.5 157.757812 304.09375 157.417969 303.667969 157.101562 C 303.242188 156.785156 302.796875 156.496094 302.335938 156.234375 C 301.878906 155.96875 301.402344 155.734375 300.917969 155.527344 C 300.429688 155.316406 299.929688 155.140625 299.421875 154.988281 C 298.914062 154.839844 298.398438 154.71875 297.875 154.628906 C 297.351562 154.539062 296.828125 154.480469 296.296875 154.453125 C 295.769531 154.425781 295.238281 154.429688 294.710938 154.460938 C 294.179688 154.496094 293.65625 154.558594 293.132812 154.65625 C 292.613281 154.75 292.097656 154.875 291.589844 155.03125 C 291.085938 155.183594 290.589844 155.371094 290.101562 155.582031 C 289.617188 155.796875 289.144531 156.035156 288.6875 156.304688 C 288.230469 156.574219 287.792969 156.867188 287.367188 157.1875 C 286.945312 157.507812 286.542969 157.847656 286.160156 158.214844 C 285.777344 158.582031 285.417969 158.96875 285.078125 159.378906 C 284.742188 159.789062 284.429688 160.214844 284.140625 160.660156 C 283.855469 161.105469 283.59375 161.566406 283.359375 162.042969 C 283.125 162.519531 282.921875 163.007812 282.746094 163.507812 L 236.566406 163.507812 L 236.566406 158.96875 L 226.179688 158.96875 C 225.5625 156.871094 224.730469 154.859375 223.683594 152.9375 L 231.03125 145.589844 L 222.957031 137.515625 L 222.957031 86.394531 L 318.214844 86.394531 L 318.214844 231.546875 L 73.269531 231.546875 Z M 73.269531 86.394531 " fill-opacity="1" fill-rule="nonzero"/></g><path fill="#545454" d="M 86.875 109.074219 L 109.558594 109.074219 L 109.558594 145.363281 C 109.558594 145.660156 109.585938 145.953125 109.644531 146.246094 C 109.703125 146.539062 109.789062 146.824219 109.902344 147.097656 C 110.015625 147.371094 110.15625 147.632812 110.320312 147.882812 C 110.488281 148.128906 110.675781 148.359375 110.886719 148.570312 C 111.097656 148.78125 111.324219 148.96875 111.574219 149.132812 C 111.820312 149.300781 112.082031 149.4375 112.355469 149.550781 C 112.632812 149.667969 112.914062 149.753906 113.207031 149.8125 C 113.5 149.867188 113.796875 149.898438 114.09375 149.898438 L 141.308594 149.898438 C 141.605469 149.898438 141.902344 149.867188 142.195312 149.8125 C 142.488281 149.753906 142.769531 149.667969 143.046875 149.550781 C 143.320312 149.4375 143.582031 149.300781 143.828125 149.132812 C 144.078125 148.96875 144.304688 148.78125 144.515625 148.570312 C 144.726562 148.359375 144.914062 148.128906 145.082031 147.882812 C 145.246094 147.632812 145.386719 147.371094 145.5 147.097656 C 145.613281 146.824219 145.699219 146.539062 145.757812 146.246094 C 145.816406 145.953125 145.84375 145.660156 145.84375 145.363281 C 145.84375 145.0625 145.816406 144.769531 145.757812 144.476562 C 145.699219 144.183594 145.613281 143.902344 145.5 143.625 C 145.386719 143.351562 145.246094 143.089844 145.082031 142.839844 C 144.914062 142.59375 144.726562 142.363281 144.515625 142.15625 C 144.304688 141.945312 144.078125 141.753906 143.828125 141.589844 C 143.582031 141.425781 143.320312 141.285156 143.046875 141.171875 C 142.769531 141.058594 142.488281 140.972656 142.195312 140.914062 C 141.902344 140.855469 141.605469 140.824219 141.308594 140.824219 L 118.628906 140.824219 L 118.628906 104.535156 C 118.628906 104.238281 118.601562 103.945312 118.542969 103.652344 C 118.484375 103.359375 118.398438 103.078125 118.285156 102.800781 C 118.167969 102.527344 118.03125 102.265625 117.863281 102.015625 C 117.699219 101.769531 117.511719 101.539062 117.300781 101.328125 C 117.089844 101.117188 116.859375 100.929688 116.613281 100.765625 C 116.367188 100.601562 116.105469 100.460938 115.828125 100.347656 C 115.554688 100.230469 115.269531 100.144531 114.976562 100.089844 C 114.6875 100.03125 114.390625 100 114.09375 100 L 86.875 100 C 86.578125 100 86.285156 100.03125 85.992188 100.089844 C 85.699219 100.144531 85.414062 100.230469 85.140625 100.347656 C 84.867188 100.460938 84.605469 100.601562 84.355469 100.765625 C 84.109375 100.929688 83.878906 101.117188 83.667969 101.328125 C 83.457031 101.539062 83.269531 101.769531 83.105469 102.015625 C 82.9375 102.265625 82.800781 102.527344 82.6875 102.800781 C 82.570312 103.078125 82.484375 103.359375 82.425781 103.652344 C 82.371094 103.945312 82.339844 104.238281 82.339844 104.535156 C 82.339844 104.835938 82.371094 105.128906 82.425781 105.421875 C 82.484375 105.714844 82.570312 105.996094 82.6875 106.273438 C 82.800781 106.546875 82.9375 106.808594 83.105469 107.058594 C 83.269531 107.304688 83.457031 107.535156 83.667969 107.746094 C 83.878906 107.957031 84.109375 108.144531 84.355469 108.308594 C 84.605469 108.472656 84.867188 108.613281 85.140625 108.726562 C 85.414062 108.84375 85.699219 108.929688 85.992188 108.984375 C 86.285156 109.042969 86.578125 109.074219 86.875 109.074219 Z M 86.875 109.074219 " fill-opacity="1" fill-rule="nonzero"/><path fill="#545454" d="M 300.074219 100 L 272.855469 100 C 272.558594 100 272.261719 100.03125 271.972656 100.089844 C 271.679688 100.144531 271.394531 100.230469 271.121094 100.347656 C 270.84375 100.460938 270.582031 100.601562 270.335938 100.765625 C 270.089844 100.929688 269.859375 101.117188 269.648438 101.328125 C 269.4375 101.539062 269.25 101.769531 269.085938 102.015625 C 268.917969 102.265625 268.777344 102.527344 268.664062 102.800781 C 268.550781 103.078125 268.464844 103.359375 268.40625 103.652344 C 268.347656 103.945312 268.320312 104.238281 268.320312 104.535156 L 268.320312 140.824219 L 245.640625 140.824219 C 245.339844 140.824219 245.046875 140.855469 244.753906 140.914062 C 244.460938 140.972656 244.179688 141.058594 243.902344 141.171875 C 243.628906 141.285156 243.367188 141.425781 243.121094 141.589844 C 242.871094 141.753906 242.640625 141.945312 242.433594 142.15625 C 242.222656 142.363281 242.035156 142.59375 241.867188 142.839844 C 241.703125 143.089844 241.5625 143.351562 241.449219 143.625 C 241.335938 143.902344 241.25 144.183594 241.191406 144.476562 C 241.132812 144.769531 241.101562 145.0625 241.101562 145.363281 C 241.101562 145.660156 241.132812 145.953125 241.191406 146.246094 C 241.25 146.539062 241.335938 146.824219 241.449219 147.097656 C 241.5625 147.371094 241.703125 147.632812 241.867188 147.882812 C 242.035156 148.128906 242.222656 148.359375 242.433594 148.570312 C 242.640625 148.78125 242.871094 148.96875 243.121094 149.132812 C 243.367188 149.300781 243.628906 149.4375 243.902344 149.550781 C 244.179688 149.667969 244.460938 149.753906 244.753906 149.8125 C 245.046875 149.867188 245.339844 149.898438 245.640625 149.898438 L 272.855469 149.898438 C 273.152344 149.898438 273.449219 149.867188 273.742188 149.8125 C 274.03125 149.753906 274.316406 149.667969 274.589844 149.550781 C 274.867188 149.4375 275.128906 149.300781 275.375 149.132812 C 275.625 148.96875 275.851562 148.78125 276.0625 148.570312 C 276.273438 148.359375 276.460938 148.128906 276.628906 147.882812 C 276.792969 147.632812 276.933594 147.371094 277.046875 147.097656 C 277.160156 146.824219 277.246094 146.539062 277.304688 146.246094 C 277.363281 145.953125 277.390625 145.660156 277.390625 145.363281 L 277.390625 109.074219 L 300.074219 109.074219 C 300.371094 109.074219 300.664062 109.042969 300.957031 108.984375 C 301.25 108.929688 301.53125 108.84375 301.808594 108.726562 C 302.082031 108.613281 302.34375 108.472656 302.59375 108.308594 C 302.839844 108.144531 303.070312 107.957031 303.28125 107.746094 C 303.492188 107.535156 303.679688 107.304688 303.84375 107.058594 C 304.007812 106.808594 304.148438 106.546875 304.261719 106.273438 C 304.378906 105.996094 304.464844 105.714844 304.519531 105.421875 C 304.578125 105.128906 304.609375 104.835938 304.609375 104.535156 C 304.609375 104.238281 304.578125 103.945312 304.519531 103.652344 C 304.464844 103.359375 304.378906 103.078125 304.261719 102.800781 C 304.148438 102.527344 304.007812 102.265625 303.84375 102.015625 C 303.679688 101.769531 303.492188 101.539062 303.28125 101.328125 C 303.070312 101.117188 302.839844 100.929688 302.59375 100.765625 C 302.34375 100.601562 302.082031 100.460938 301.808594 100.347656 C 301.53125 100.230469 301.25 100.144531 300.957031 100.089844 C 300.664062 100.03125 300.371094 100 300.074219 100 Z M 300.074219 100 " fill-opacity="1" fill-rule="nonzero"/></svg>